<svg width="170" height="170" viewBox="0 0 170 170" fill="none" xmlns="http://www.w3.org/2000/svg">
<path d="M49.3765 35.9082C49.3746 39.6426 47.8893 43.2234 45.2473 45.8627C42.6053 48.5021 39.0231 49.9838 35.2886 49.9819C31.5542 49.9801 27.9734 48.4948 25.334 45.8528C22.6947 43.2108 21.213 39.6285 21.2148 35.8941C21.2167 32.1596 22.702 28.5789 25.344 25.9395C27.986 23.3002 31.5682 21.8184 35.3027 21.8203C39.0372 21.8222 42.6179 23.3075 45.2573 25.9495C47.8966 28.5914 49.3783 32.1737 49.3765 35.9082ZM49.7989 60.4088H21.6373V148.555H49.7989V60.4088ZM94.2942 60.4088H66.2734V148.555H94.0126V102.299C94.0126 76.5313 127.595 74.1376 127.595 102.299V148.555H155.405V92.7242C155.405 49.2849 105.7 50.9042 94.0126 72.2366L94.2942 60.4088Z" fill="#ABA4A7"/>
</svg>
