<svg width="1551" height="1155" viewBox="0 0 1551 1155" fill="none" xmlns="http://www.w3.org/2000/svg">
<path d="M869.013 153C869.013 154.729 869.667 163.117 890.013 203C907.412 237.108 948.018 294.196 978.013 334C1008.01 373.804 1028.5 393.147 1050.01 409C1071.53 424.853 1092.89 437.034 1117.01 445C1141.13 452.966 1167.26 456.083 1191.01 457C1235.51 458.718 1267.69 448.888 1286.01 438C1301.17 428.997 1307.08 413.076 1311.01 400C1312.83 393.965 1311.61 389.402 1309.01 385C1303.39 375.47 1257.22 359.693 1190.01 337C1146.07 322.163 1111.59 320.013 1078.01 320C1046.84 319.988 1020.52 332.073 1000.01 346C980.365 359.346 973.945 385.739 970.013 411C965.855 437.702 971.186 465.416 979.013 492C986.72 518.181 1012.91 536.574 1049.01 554C1101.83 579.493 1150.63 580.04 1172.01 577C1188.18 574.702 1197.07 563.416 1201.01 556C1202.48 553.237 1199.79 550.323 1182.01 549C1164.24 547.677 1130.65 547.583 993.013 564C855.376 580.417 614.397 613.924 487.012 630C359.628 646.076 353.296 643.228 348.012 638C336.514 626.623 332.593 601.987 333.012 565C333.256 543.541 338.471 515.807 345.012 486C351.554 456.193 360.67 424.668 382.012 387C403.355 349.332 435.962 307.152 465.012 281C494.063 254.848 518.554 245.428 544.013 244C569.471 242.572 595.769 249.343 626.013 265C656.256 280.657 690.325 305.328 725.013 339C759.7 372.672 794.205 414.27 825.013 459C855.82 503.73 880.989 550.759 903.013 596C925.036 641.241 942.772 683.877 956.013 723C969.253 762.123 977.825 796.319 984.013 831C990.2 865.681 993.527 900.088 994.013 930C994.905 985.022 983.906 1024.42 973.013 1051C954.375 1096.48 944.295 1117.98 946.013 1128C948.138 1140.41 981.8 1145.33 1031.01 1151C1058.5 1154.17 1092.34 1154.01 1127.01 1151C1161.69 1147.99 1196.57 1140.53 1233.01 1124C1269.46 1107.47 1305.58 1081.96 1339.01 1050C1372.44 1018.04 1402.07 980.747 1425.01 943C1447.95 905.253 1463.39 867.856 1474.01 834C1484.63 800.144 1490.37 770.82 1490.01 744C1489.66 717.18 1483.25 693.837 1468.01 671C1452.78 648.163 1428.73 626.296 1376.01 597C1323.3 567.704 1242.34 531.33 1184.01 507C1125.69 482.67 1092 471.818 1056.01 463C1020.03 454.182 983.523 447.659 851.013 448C718.502 448.341 491.578 455.733 367.012 458C242.447 460.267 226.199 456.931 216.012 453C205.826 449.069 202.241 443.861 200.012 436C195.001 418.322 204.305 390.541 223.012 357C233.133 338.855 251.835 323.26 275.012 307C298.19 290.74 327.064 275.329 366.012 263C404.961 250.671 452.478 241.523 525.013 247C597.547 252.477 694.098 273.635 760.013 296C825.927 318.365 858.664 341.569 889.013 367C919.361 392.431 946.025 419.519 978.013 461C1010 502.481 1045.94 557.302 1072.01 591C1098.09 624.698 1113.49 635.763 1131.01 645C1148.54 654.237 1168.22 661.694 1191.01 667C1213.81 672.306 1239.11 674.393 1265.01 674C1290.92 673.607 1317.1 670.564 1343.01 661C1368.93 651.436 1393.27 635.557 1417.01 615C1440.75 594.443 1462.38 569.593 1480.01 545C1497.64 520.407 1510.87 496.54 1521.01 475C1539.77 435.187 1547.26 401.719 1549.01 376C1550.48 354.587 1538.05 335.317 1515.01 314C1499.97 300.079 1474.62 285.788 1450.01 273C1425.41 260.212 1401.62 251.049 1374.01 244C1346.4 236.951 1315.5 232.105 1283.01 229C1250.53 225.895 1217.66 224.284 1186.01 226C1154.37 227.716 1124.74 232.017 1094.01 239C1063.28 245.983 1031.55 255.808 932.013 294C832.472 332.192 665.83 398.808 556.013 437C446.195 475.192 399.051 483.694 349.012 489C298.974 494.306 247.075 496.258 200.012 495C152.95 493.742 112.279 488.936 74.0125 440C35.746 391.064 1.52376 298.419 1.01249 230C0.501225 161.581 15.5312 105.489 74.0125 72C132.494 38.5112 216.253 10.8441 342.012 4C469.851 -2.95725 661.301 50.8458 814.013 98C966.724 145.154 1095.38 221.887 1170.01 257C1244.64 292.113 1261.19 297.462 1277.01 301C1333 313.517 1373.74 304.251 1397.01 289C1407.03 282.436 1407.57 267.198 1408.01 255C1408.95 229.439 1383.33 206.062 1351.01 162C1338.35 144.737 1321.31 133.901 1303.01 123C1259.92 97.3315 1214.49 103.135 1204.01 104C1199.53 104.37 1196.78 106.38 1195.01 109C1193.24 111.62 1192.59 115.056 1193.01 119C1193.92 127.494 1203.08 136.584 1217.01 144C1232.95 152.48 1254.52 149.472 1275.01 146C1295.53 142.523 1312.19 128.657 1327.01 113C1344.96 94.0476 1345.98 67.9668 1349.01 54C1354.08 30.619 1397.25 43.6998 1420.01 35C1433.07 23.7322 1444.47 14.2277 1451.01 9C1454.09 6.36649 1456.09 3.67282 1464.01 1" stroke="#6A686C" stroke-width="2" stroke-linecap="round"/>
</svg>
