<svg width="158" height="53" viewBox="0 0 158 53" fill="none" xmlns="http://www.w3.org/2000/svg">
<g clip-path="url(#clip0_566_890)">
<path d="M65.6969 2.83398C66.6355 2.83398 67.4296 2.90664 68.1877 3.19725C68.9096 3.45153 69.4872 3.85111 69.9204 4.32335C70.3535 4.75927 70.6423 5.44947 70.9311 6.06702C71.1116 6.72089 71.1838 7.44741 71.1116 8.17394L67.1769 8.90046C67.1769 8.24659 66.9964 7.77435 66.816 7.33844C66.5633 6.97517 66.2745 6.68456 65.8052 6.68456C65.5525 6.68456 65.372 6.75721 65.1555 6.86619C64.975 6.93884 64.9028 7.12047 64.7945 7.22945C64.5418 7.48374 64.4335 7.66537 64.4335 7.88333C64.4335 8.10129 64.3613 8.24659 64.3613 8.31924V19.1445C64.3613 19.3988 64.4335 19.6894 64.5418 19.98C64.7223 20.2343 64.975 20.3432 65.5525 20.3432C65.9135 20.3432 66.2745 20.2706 66.5633 20.089C66.816 19.9073 66.9242 19.653 66.9242 19.2534V16.0204H65.5525V12.4241H71.0755V18.9992C71.0755 20.7428 70.6423 22.0506 69.7038 22.9587C68.7652 23.8669 67.5018 24.3391 65.7691 24.3391C63.8559 24.3391 62.4481 23.9032 61.6179 23.0314C60.7876 22.0869 60.3184 20.8155 60.3184 19.0718V8.31924C60.3184 6.64823 60.7515 5.26784 61.6901 4.25071C62.5564 3.37888 63.9281 2.83398 65.6969 2.83398ZM72.7721 24.1938V3.01562H82.4463V6.97517H76.9233V11.516H81.7965V15.4755H76.9233V20.2706H82.4463V24.2301H72.7721V24.1938ZM91.4346 13.0053V3.01562H95.4776V24.1938H91.9761L89.4854 17.982L88.0054 14.0225H87.8249V24.1938H83.6736V3.01562H87.2473L89.7381 9.11842L91.1098 13.0053H91.4346ZM97.6796 24.1938V3.01562H107.354V6.97517H101.831V11.516H106.704V15.4755H101.831V20.2706H107.354V24.2301H97.7157L97.6796 24.1938ZM113.779 3.01562C114.609 3.01562 115.44 3.08826 116.162 3.26989C116.884 3.45152 117.533 3.81479 118.003 4.39601C118.544 4.83192 118.941 5.52212 119.194 6.3213C119.447 7.1568 119.627 8.06496 119.627 9.30005C119.627 10.7894 119.447 11.9155 119.086 12.8237C118.725 13.7682 118.075 14.4947 117.353 15.0396L120.385 24.2301H116.126L113.635 15.9841H112.805V24.2301H108.653V3.05193L113.779 3.01562ZM112.949 7.0115V11.9882H113.599C113.851 11.9882 114.14 11.9882 114.429 11.9155C114.682 11.8429 114.862 11.7339 115.151 11.5523C115.331 11.3707 115.512 11.1164 115.584 10.7168C115.656 10.3535 115.765 9.99025 115.765 9.40903C115.765 8.57352 115.584 8.02863 115.223 7.66537C114.862 7.30211 114.285 7.12048 113.671 7.12048H112.949C112.949 7.08415 112.949 7.0115 112.949 7.0115Z" fill="white"/>
<path d="M128.399 20.0526H125.259L124.609 24.2302H120.277L124.212 3.05194H129.266L133.309 24.2302H128.977L128.399 20.0526ZM126.27 12.8237L125.836 16.1657H127.75L127.389 12.8237L126.956 8.53721H126.739L126.27 12.8237ZM134.356 24.1938V3.01562H138.507V20.2343H144.03V24.1938H134.356ZM66.961 45.4084H63.8205L63.279 49.5859H58.9473L62.8819 28.4077H67.9356L71.8703 49.5859H67.5385L66.961 45.4084ZM64.9395 38.1794L64.5063 41.5215H66.4195L66.0585 38.1794L65.5171 33.8203H65.3366L64.9395 38.1794ZM83.4216 43.3378C83.4216 44.3549 83.3494 45.1904 83.1689 46.0259C82.9884 46.8614 82.7357 47.5153 82.2303 48.0602C81.8694 48.6051 81.2196 49.0773 80.5698 49.3679C79.8479 49.6222 79.0176 49.8038 77.8986 49.8038C76.8879 49.8038 76.0576 49.6222 75.4079 49.3679C74.6859 49.1136 74.1083 48.714 73.7474 48.1692C73.3142 47.7332 73.0254 47.043 72.8088 46.4255C72.5922 45.8079 72.5561 45.0451 72.5561 44.3186L76.7074 43.4831C76.7074 44.2096 76.8879 44.8635 77.0684 45.2267C77.2488 45.59 77.6098 45.7716 78.1874 45.7716C78.4401 45.7716 78.7289 45.699 78.9093 45.59C79.0898 45.4084 79.162 45.2267 79.2703 45.0451C79.3425 44.8635 79.4508 44.6092 79.4508 44.2096V43.2651C79.4508 42.8292 79.4508 42.5386 79.3786 42.248C79.3064 41.9937 79.1981 41.7031 79.1259 41.5215C78.9454 41.3398 78.765 41.1582 78.4762 40.9766C78.2235 40.7949 77.9347 40.7223 77.4654 40.5406C76.4547 40.1047 75.6245 39.7051 74.9747 39.2329C74.3249 38.797 73.8557 38.2884 73.4947 37.7435C73.1337 37.1986 72.9532 36.7264 72.8449 36.0725C72.7727 35.5276 72.6644 34.8737 72.6644 34.1472C72.6644 33.3117 72.7366 32.4762 72.9171 31.7497C73.0976 31.0232 73.4586 30.3693 73.8557 29.8244C74.2888 29.2795 74.8664 28.8799 75.5162 28.6256C76.2381 28.3713 77.0684 28.1897 78.0069 28.1897C79.0176 28.1897 79.9201 28.3713 80.6059 28.6256C81.2557 28.9889 81.7972 29.3521 82.2664 29.9334C82.6274 30.4783 82.9162 31.0595 83.0967 31.677C83.2772 32.3309 83.3494 32.8758 83.3494 33.5297L79.3064 34.4741V33.6023C79.3064 33.348 79.2342 33.1664 79.1259 32.8758C79.0537 32.6942 78.8733 32.5125 78.765 32.4399C78.5845 32.3672 78.404 32.2583 78.043 32.2583C77.7903 32.2583 77.6098 32.3309 77.3932 32.4399C77.2127 32.5125 77.1406 32.6942 77.0323 32.8758C76.9601 33.0574 76.8518 33.2391 76.8518 33.5297V34.2562C76.8518 34.5105 76.8518 34.8011 76.924 34.9827C76.924 35.1644 77.1045 35.4186 77.1766 35.6366C77.3571 35.8182 77.5376 35.9999 77.8986 36.1815L79.1981 36.8354C80.1367 37.1986 80.9308 37.6709 81.4723 38.0341C82.0138 38.47 82.483 38.9786 82.7718 39.4145C83.0245 39.8504 83.205 40.5406 83.3133 41.1582C83.4216 41.7757 83.4216 42.5386 83.4216 43.3378ZM95.6587 43.3378C95.6587 44.3549 95.5865 45.1904 95.406 46.0259C95.2255 46.8614 94.9729 47.5153 94.4675 48.0602C94.1065 48.6051 93.4568 49.0773 92.807 49.3679C92.085 49.6222 91.2548 49.8038 90.1358 49.8038C89.125 49.8038 88.2948 49.6222 87.645 49.3679C86.923 49.1136 86.3455 48.714 85.9845 48.1692C85.5513 47.7332 85.2626 47.043 85.046 46.4255C84.8294 45.8079 84.7933 45.0451 84.7933 44.3186L88.9445 43.4831C88.9445 44.2096 89.125 44.8635 89.3055 45.2267C89.486 45.59 89.847 45.7716 90.4245 45.7716C90.6772 45.7716 90.966 45.699 91.1465 45.59C91.327 45.4084 91.3992 45.2267 91.5075 45.0451C91.5797 44.8635 91.688 44.6092 91.688 44.2096V43.2651C91.688 42.8292 91.688 42.5386 91.6158 42.248C91.5436 41.9937 91.4353 41.7031 91.3631 41.5215C91.1826 41.3398 91.0021 41.1582 90.7133 40.9766C90.4606 40.7949 90.1719 40.7223 89.7026 40.5406C88.6918 40.1047 87.8616 39.7051 87.2118 39.2329C86.5621 38.797 86.0928 38.2884 85.7318 37.7435C85.3708 37.1986 85.1904 36.7264 85.0821 36.0725C85.0099 35.5276 84.9016 34.8737 84.9016 34.1472C84.9016 33.3117 84.9738 32.4762 85.1543 31.7497C85.3347 31.0232 85.6957 30.3693 86.0928 29.8244C86.526 29.2795 87.1035 28.8799 87.7533 28.6256C88.4753 28.3713 89.3055 28.1897 90.2441 28.1897C91.2548 28.1897 92.1572 28.3713 92.8431 28.6256C93.4929 28.9889 94.0343 29.3521 94.5036 29.9334C94.8646 30.4783 95.1534 31.0595 95.3338 31.677C95.5143 32.3309 95.5865 32.8758 95.5865 33.5297L91.5436 34.4741V33.6023C91.5436 33.348 91.4714 33.1664 91.3631 32.8758C91.2909 32.6942 91.1104 32.5125 91.0021 32.4399C90.8216 32.3672 90.6411 32.2583 90.2801 32.2583C90.0275 32.2583 89.847 32.3309 89.6304 32.4399C89.4499 32.5125 89.3777 32.6942 89.2694 32.8758C89.1972 33.0574 89.0889 33.2391 89.0889 33.5297V34.2562C89.0889 34.5105 89.0889 34.8011 89.1611 34.9827C89.1611 35.1644 89.3416 35.4186 89.4138 35.6366C89.5943 35.8182 89.7748 35.9999 90.1358 36.1815L91.4353 36.8354C92.3738 37.1986 93.168 37.6709 93.7094 38.0341C94.2509 38.47 94.7202 38.9786 95.009 39.4145C95.2616 39.8504 95.4421 40.5406 95.5504 41.1582C95.5504 41.7757 95.6587 42.5386 95.6587 43.3378ZM97.2831 49.5495V28.3713H106.957V32.3309H101.434V36.8717H106.308V40.8312H101.434V45.6263H106.957V49.5132L97.2831 49.5495ZM114.43 45.4084L113.491 42.7202L112.552 39.5598H112.372V49.5495H108.221V28.3713H112.083L114.177 34.0019L115.549 38.1794H115.729L117.209 33.8929L119.231 28.335H123.093V49.5132H118.942V39.6325H118.87L117.859 42.8655L117.029 45.372H114.43V45.4084ZM133.381 38.4337C133.814 38.6153 134.319 38.797 134.572 39.1602C134.825 39.4145 135.114 39.8141 135.294 40.1774C135.475 40.5406 135.655 41.0129 135.655 41.4851C135.727 41.921 135.727 42.4296 135.727 42.8655C135.727 45.1541 135.294 46.8251 134.247 47.8422C133.237 48.9683 131.757 49.4042 129.807 49.4042H125.115V28.2987H129.879C131.72 28.2987 133.2 28.7346 134.139 29.7881C135.077 30.8052 135.511 32.2946 135.511 34.2562C135.511 34.6921 135.511 35.0917 135.438 35.5639C135.366 35.9999 135.258 36.3994 135.078 36.7627C134.897 37.126 134.644 37.4166 134.356 37.7798C134.103 38.1068 133.742 38.2884 133.381 38.4337ZM131.72 34.4015C131.72 33.566 131.54 33.0211 131.287 32.7305C131.035 32.4762 130.457 32.3672 129.807 32.3672H129.374V36.5448H129.916C131.143 36.5084 131.72 35.8909 131.72 34.4015ZM131.901 42.7202C131.901 41.8847 131.72 41.2308 131.468 40.9766C131.215 40.6133 130.746 40.4317 130.168 40.4317H129.446V45.699H130.168C130.529 45.699 130.89 45.6263 131.107 45.5173C131.359 45.3357 131.468 45.1541 131.648 44.8635C131.72 44.6092 131.829 44.3186 131.901 43.919V42.7202ZM138.038 49.5495V28.3713H142.189V45.59H147.712V49.5495H138.038ZM152.007 36.1452L152.729 32.6215L153.668 28.444H158L153.957 41.0492V49.5495H149.805V40.9402L145.654 28.335H150.094L151.105 32.6215L151.827 36.1452H152.007Z" fill="white"/>
<path d="M27.9023 0C28.913 0 29.9239 0.181663 30.9346 0.363281C30.6819 1.34405 31.2237 2.39707 32.2344 2.65137C33.209 2.90565 34.2561 2.36089 34.5088 1.34375C35.5195 1.707 36.4219 2.10708 37.3604 2.54297C36.8189 3.48738 37.0714 4.61327 38.0098 5.1582C38.9483 5.70307 40.0679 5.44923 40.6094 4.50488C41.5477 5.12231 42.3778 5.77595 43.0996 6.42969C42.3777 7.19254 42.3416 8.39165 43.0996 9.11816C43.8575 9.8445 45.0485 9.84429 45.7705 9.11816C46.4924 9.95364 47.1431 10.7885 47.6846 11.624C46.8543 12.2052 46.4927 13.2958 47.0342 14.2402C47.6118 15.0756 48.6953 15.4384 49.6338 14.8936C50.1031 15.838 50.4632 16.7465 50.8242 17.7637C49.886 18.0181 49.2729 19.0349 49.5254 20.0518C49.778 20.9961 50.7882 21.6134 51.7988 21.3594C51.9793 22.4128 52.088 23.5034 52.1602 24.5205C51.1496 24.5932 50.3194 25.4283 50.3193 26.4453C50.3193 27.4261 51.1495 28.3708 52.1602 28.2256C52.1601 29.3516 51.9793 30.3686 51.7988 31.3857C50.8243 31.2044 49.778 31.7496 49.5254 32.7666C49.2729 33.7472 49.8139 34.8002 50.8242 35.0547C50.4633 36.108 50.0669 37.0889 49.6338 38.0332C48.6953 37.561 47.5757 37.8154 47.0342 38.7598C46.4927 39.7043 46.746 40.8311 47.6846 41.376L45.7705 43.8818C45.0125 43.1557 43.8214 43.1555 43.0996 43.8818C42.3777 44.6447 42.3777 45.8438 43.0996 46.5703C42.2695 47.2967 41.4394 47.9503 40.6094 48.4951C40.0318 47.6597 38.9483 47.2969 38.0098 47.8418C37.1797 48.423 36.819 49.5126 37.3604 50.457C36.4219 50.9292 35.5195 51.293 34.5088 51.6562C34.2561 50.7118 33.2451 50.0943 32.2344 50.3486C31.2959 50.6029 30.6819 51.6196 30.9346 52.6367C29.9239 52.8183 28.913 52.9274 27.9023 53C27.9023 51.9829 27.0723 51.1475 26.0615 51.1475C25.0508 51.1475 24.2207 51.9829 24.2207 53C23.21 53 22.1992 52.8183 21.1885 52.6367C21.4411 51.6559 20.8633 50.6029 19.8887 50.3486C18.9141 50.0944 17.8669 50.6391 17.6143 51.6562C16.6036 51.293 15.7011 50.8929 14.7627 50.457C15.3041 49.5126 15.0517 48.3867 14.1133 47.8418C13.1748 47.3696 12.0561 47.6239 11.5146 48.5684C10.5761 47.9508 9.74539 47.2965 9.02344 46.6426C9.74518 45.8798 9.74518 44.6816 9.02344 43.9551C8.26539 43.2286 7.0745 43.2286 6.35254 43.9551C5.63064 43.1196 4.9809 42.2837 4.43945 41.4482C5.26943 40.867 5.66616 39.741 5.08887 38.833C4.5113 37.9249 3.4278 37.5616 2.48926 38.1064C2.02006 37.0532 1.65975 36.1449 1.29883 35.1279C2.23727 34.8736 2.85032 33.8559 2.59766 32.8389C2.34493 31.8946 1.3348 31.2772 0.324219 31.5312C0.143747 30.4779 0.0350862 29.3881 -0.0371094 28.3711C0.9735 28.3711 1.8035 27.5355 1.80371 26.5186C1.80371 25.4288 0.973629 24.5928 -0.0371094 24.5928C-0.0370982 23.4667 0.143739 22.4497 0.324219 21.4326C1.29865 21.6866 2.34486 21.1418 2.59766 20.125C2.85032 19.1443 2.30941 18.0903 1.29883 17.8359C1.65971 16.8917 2.05622 15.911 2.48926 14.9668C3.42773 15.439 4.54735 15.1845 5.08887 14.2402C5.6303 13.2958 5.37786 12.169 4.43945 11.624L6.35254 9.11816C7.11056 9.84434 8.30157 9.84445 9.02344 9.11816C9.74539 8.35531 9.74539 7.15621 9.02344 6.42969C9.85368 5.70317 10.6844 5.04977 11.5146 4.50488C12.0923 5.34002 13.1749 5.70299 14.1133 5.1582C14.9435 4.57697 15.3041 3.48741 14.7627 2.54297C15.7011 2.07077 16.6036 1.70698 17.6143 1.34375C17.8669 2.28821 18.878 2.9056 19.8887 2.65137C20.9355 2.39709 21.4411 1.3804 21.1885 0.363281C22.1992 0.181659 23.21 0.0726505 24.2207 0C24.2207 1.08976 25.0508 1.92575 26.0615 1.92578C27.0723 1.92578 27.9023 1.01714 27.9023 0ZM18.8789 10.8613C17.1462 10.8613 15.7383 11.4067 14.7275 12.4238C13.7891 13.4409 13.3555 14.8208 13.3555 16.6006V36.4717C13.3555 38.3241 13.789 39.6319 14.6553 40.54C15.5938 41.4844 16.9297 41.9199 18.8066 41.9199C20.5391 41.9199 21.8388 41.4844 22.7412 40.54C23.6796 39.5956 24.1122 38.2514 24.1123 36.4717V27.208H18.5898V30.9131H19.9609V36.7617C19.9609 37.125 19.8893 37.416 19.6006 37.5977C19.3479 37.7793 19.059 37.9609 18.5898 37.9609C18.0485 37.9609 17.7596 37.8881 17.5791 37.5977C17.5069 37.3434 17.3984 37.0523 17.3984 36.7617V16.4922C17.3984 16.3106 17.3986 16.2377 17.4707 15.9473C17.4707 15.7657 17.5431 15.584 17.6514 15.4023C17.7236 15.2207 17.9034 15.1475 18.0117 14.9658C18.1922 14.8932 18.3733 14.7842 18.6621 14.7842H18.7344C18.9868 14.7842 19.1674 14.8569 19.3838 14.9658C19.5643 15.0385 19.6368 15.2207 19.7451 15.4023C19.8173 15.5839 19.9248 15.7657 19.9248 15.9473C19.9249 16.1288 19.9971 16.3106 19.9971 16.4922V21.1416H24.1484V16.4922C24.1484 14.7486 23.7158 13.4405 22.7773 12.3145C22.0915 11.4427 20.7197 10.8614 18.8789 10.8613ZM25.4121 41.7754H29.7803L30.7188 34.292H33.209L34.1475 41.7754H38.4795L34.5088 11.043H29.4551L25.4121 41.7754Z" fill="white"/>
<path d="M32.0187 30.6584C31.008 30.6584 30.1777 29.8229 30.1777 28.8058C30.1777 27.7886 31.008 26.9531 32.0187 26.9531C33.0295 26.9531 33.8597 27.7886 33.8597 28.8058C33.8597 29.8229 33.0295 30.6584 32.0187 30.6584Z" fill="white"/>
</g>
<defs>
<clipPath id="clip0_566_890">
<rect width="158" height="53" fill="white"/>
</clipPath>
</defs>
</svg>
