<svg width="158" height="46" viewBox="0 0 158 46" fill="none" xmlns="http://www.w3.org/2000/svg">
<g clip-path="url(#clip0_850_493)">
<path d="M33.4951 8.36356C33.3371 8.36356 30.0191 8.04188 30.0191 8.04188C30.0191 8.04188 27.6491 5.6293 27.3331 5.46846C27.1751 5.30762 27.1751 5.30762 27.0171 5.30762L25.1211 44.874L38.7091 41.8181C38.7091 41.8181 33.9691 9.00692 33.9691 8.68524C33.9691 8.5244 33.6531 8.36356 33.4951 8.36356Z" fill="#E5E5E5"/>
<path d="M18.0117 0.161133C18.8017 0.161133 19.7498 0.483258 20.3818 1.44824H20.54C22.91 1.44827 24.3321 3.53928 25.1221 5.79102C25.9006 5.47402 26.3722 5.3132 26.3857 5.30859C26.5437 5.30859 27.018 5.14739 27.334 5.46875C27.649 5.62911 30.0055 8.02872 30.0195 8.04297C30.0195 8.04297 33.3383 8.36426 33.6543 8.36426C33.8121 8.36446 33.9694 8.52496 33.9697 8.68555C33.9697 9.00723 38.71 41.8193 38.71 41.8193L25.1221 44.875L0 40.0498C0 40.0498 3.16014 14.639 3.31836 13.833C3.47636 12.7071 3.47623 12.5463 4.74023 12.2246C6.16217 11.7421 7.42648 11.2592 8.69043 10.9375C9.63849 7.23816 12.3241 0.000552914 18.0117 0.161133ZM20.54 16.084C20.54 16.084 19.4338 15.2797 16.748 15.4404C10.9021 15.4404 7.89948 19.4618 7.89941 23.6436C7.89941 28.6296 12.7979 28.7907 12.7979 31.8467C12.7978 32.6508 12.3235 33.6152 11.0596 33.6152C9.17417 33.6151 6.9766 31.7068 6.95215 31.6855L5.8457 35.5459C5.85866 35.5619 8.07008 38.2801 12.3232 38.2803C15.9572 38.2803 18.6436 35.5458 18.6436 31.2031C18.6436 25.7346 12.6396 24.7693 12.6396 22.5176C12.6397 22.0348 12.7981 20.4269 15.4834 20.4268C17.3794 20.4268 18.8018 21.2314 18.8018 21.2314L20.54 16.084ZM17.8535 1.60938C13.746 1.6098 11.5337 7.07725 10.4277 10.2939L13.9043 9.3291C14.8523 4.82608 16.7477 2.73495 18.6436 1.93066C18.3278 1.76989 18.1694 1.60938 17.8535 1.60938ZM19.5918 3.21777C18.1699 3.86118 16.5895 5.30837 15.6416 8.68555L20.2236 7.39941V7.07715C20.2236 5.30831 19.9077 4.18268 19.5918 3.21777ZM21.1719 2.73535C21.4878 3.70031 21.6465 4.82605 21.6465 6.27344V6.75586L23.7002 6.1123C23.2262 4.50399 22.2778 3.05702 21.1719 2.73535Z" fill="white"/>
<path d="M54.6673 25.574C53.2453 24.7698 52.6133 24.1264 52.6133 23.3222C52.6133 22.1963 53.5613 21.553 55.1413 21.553C56.8793 21.553 58.4593 22.3572 58.4593 22.3572L59.7233 18.497C59.7233 18.497 58.6173 17.532 55.2993 17.532C50.5593 17.532 47.3993 20.2663 47.3993 24.1264C47.3993 26.3781 48.9793 27.9865 50.8753 29.1124C52.4553 30.0775 53.0873 30.7208 53.0873 31.6858C53.0873 32.6509 52.2973 33.6159 50.7173 33.6159C48.5053 33.6159 46.2933 32.49 46.2933 32.49L45.0293 36.3502C45.0293 36.3502 46.9253 37.6369 50.2433 37.6369C54.9833 37.6369 58.4593 35.2243 58.4593 30.8816C58.4593 28.4691 56.7213 26.6998 54.6673 25.574ZM73.7853 17.3712C71.4153 17.3712 69.5193 18.497 68.0973 20.2663L70.1513 9.3292H64.7793L59.5653 37.1544H64.9373L66.6753 27.6649C67.3073 24.1264 69.2033 21.8747 70.9413 21.8747C72.2053 21.8747 72.6793 22.6788 72.6793 23.9656C72.6793 24.7698 72.6793 25.574 72.5213 26.3781L70.4673 37.3152H75.8393L77.8933 26.0565C78.0513 24.9306 78.2093 23.483 78.2093 22.518C78.2093 19.3012 76.6293 17.3712 73.7853 17.3712ZM87.5313 33.2942C85.6353 33.2942 85.0033 31.6858 85.0033 29.7558C85.0033 26.6998 86.5833 21.553 89.4273 21.553C91.3233 21.553 91.9553 23.1614 91.9553 24.7698C91.9553 28.3082 90.3753 33.2942 87.5313 33.2942ZM90.2173 17.3712C83.7393 17.3712 79.4733 23.3222 79.4733 29.9166C79.4733 34.0984 82.0013 37.476 86.8993 37.476C93.2193 37.476 97.4853 31.6858 97.4853 24.9306C97.4853 21.0705 95.2733 17.3712 90.2173 17.3712ZM106.017 33.4551C104.595 33.4551 103.805 32.6509 103.805 32.6509L104.753 27.504C105.385 24.1264 107.123 21.8747 109.019 21.8747C110.599 21.8747 111.231 23.483 111.231 24.9306C111.073 28.4691 109.019 33.4551 106.017 33.4551ZM111.231 17.3712C107.597 17.3712 105.543 20.5879 105.543 20.5879L105.859 17.6928H101.119C100.961 19.6229 100.487 22.6788 100.013 24.9306L96.2213 44.8747H101.593L103.015 36.8327H103.173C103.173 36.8327 104.279 37.476 106.333 37.476C112.653 37.476 116.761 30.8816 116.761 24.2872C116.761 20.7488 115.181 17.3712 111.231 17.3712ZM124.345 9.65088C122.607 9.65088 121.343 11.0984 121.343 12.8677C121.343 14.4761 122.291 15.6019 123.871 15.6019C125.609 15.6019 127.031 14.4761 127.031 12.3851C127.031 10.7767 125.925 9.65088 124.345 9.65088ZM116.919 37.1544H122.291L125.925 17.8537H120.553L116.919 37.1544ZM139.513 17.8537H135.721L135.879 16.8886C136.195 14.9586 137.301 13.3502 139.039 13.3502C139.987 13.3502 140.777 13.6719 140.777 13.6719L141.883 9.3292C141.883 9.3292 140.935 8.84668 139.039 8.84668C137.143 8.84668 135.247 9.3292 133.825 10.6159C131.929 12.2243 131.139 14.476 130.665 16.7278L130.507 17.6928H127.979L127.189 21.8747H129.717L126.873 37.1544H132.245L135.089 21.8747H138.723L139.513 17.8537ZM152.311 17.8537C152.311 17.8537 148.993 26.3781 147.413 31.0425C147.255 29.5949 146.149 17.8537 146.149 17.8537H140.461L143.621 35.546C143.621 35.8677 143.621 36.1893 143.463 36.511C142.831 37.7977 141.725 38.9236 140.619 39.7278C139.671 40.532 138.407 41.0145 137.617 41.3362L139.039 46.0005C140.145 45.8397 142.357 44.8747 144.253 43.1054C146.623 40.8537 148.993 37.1544 151.205 32.3292L157.683 18.0145L152.311 17.8537Z" fill="white"/>
</g>
<defs>
<clipPath id="clip0_850_493">
<rect width="158" height="46" fill="white"/>
</clipPath>
</defs>
</svg>
