<svg width="72" height="91" viewBox="0 0 72 91" fill="none" xmlns="http://www.w3.org/2000/svg">
<g clip-path="url(#clip0_850_425)">
<path d="M70.4115 55.4166C70.4106 56.2161 70.4127 56.9797 70.4081 57.7433C70.3989 59.2763 70.0647 60.7505 69.5588 62.188C68.8073 64.3234 67.7129 66.2701 66.2693 68.0227C65.3568 69.1305 64.2742 70.0385 63.0857 70.8413C58.5472 73.907 54.0199 76.9891 49.4873 80.0634C45.2612 82.9299 41.0336 85.7944 36.8069 88.66C36.6585 88.7607 36.5069 88.8581 36.3666 88.9692C36.2098 89.0933 36.0762 89.0801 35.9144 88.967C35.2989 88.5368 34.6761 88.1168 34.055 87.6945C31.4245 85.9056 28.794 84.1167 26.1629 82.3289C23.0975 80.246 20.034 78.1606 16.965 76.0829C14.1829 74.1995 11.3888 72.3335 8.61249 70.4418C7.69226 69.8147 6.9056 69.0344 6.17443 68.1931C5.14256 67.0058 4.30635 65.6957 3.61644 64.2919C2.87427 62.7818 2.32946 61.2063 2.06853 59.5371C1.96496 58.8745 1.92056 58.2121 1.92053 57.5447C1.9198 39.599 1.91994 21.6534 1.91993 3.7078C1.91993 3.59005 1.91993 3.47229 1.91993 3.30927C13.3353 2.50187 24.7318 1.86931 36.1539 1.86914C47.5771 1.86897 58.9749 2.5013 70.4115 3.3103C70.4115 20.6915 70.4115 38.0362 70.4115 55.4166ZM5.10866 58.1301C5.16908 58.5429 5.20899 58.9598 5.29338 59.3677C5.7277 61.467 6.61934 63.3681 7.85679 65.1133C8.69393 66.2939 9.7021 67.2956 10.9147 68.1089C14.2164 70.3235 17.5001 72.5647 20.7897 74.7971C25.4863 77.9844 30.1817 81.1735 34.8779 84.3615C35.3023 84.6496 35.7288 84.9348 36.1539 85.221C36.2566 85.1577 36.3395 85.1108 36.418 85.0576C39.4504 83.0008 42.4825 80.9436 45.5144 78.8861C50.7461 75.3358 55.9769 71.7841 61.2101 68.2359C61.8553 67.7984 62.4886 67.3502 63.0424 66.7965C63.9631 65.8761 64.7292 64.8413 65.3632 63.7108C66.5505 61.5936 67.2709 59.3617 67.2359 56.895C67.187 53.4472 67.2236 49.9982 67.2236 46.5496C67.2237 33.2209 67.2239 19.8922 67.223 6.56349C67.223 6.47279 67.2093 6.3821 67.2012 6.28165C67.12 6.27114 67.0623 6.26037 67.0042 6.25664C65.7593 6.17662 64.5145 6.09314 63.2692 6.0189C60.9223 5.879 58.5757 5.73315 56.2279 5.61132C54.3111 5.51187 52.3929 5.43935 50.475 5.36312C48.7129 5.29308 46.9507 5.22379 45.188 5.1732C43.6289 5.12845 42.0692 5.09636 40.5096 5.083C38.1583 5.06285 35.8062 5.02938 33.4554 5.06415C30.0967 5.11381 26.7386 5.2144 23.3806 5.30471C21.9656 5.34277 20.5508 5.39707 19.137 5.46696C16.6571 5.58957 14.1778 5.72592 11.6987 5.86411C9.90217 5.96425 8.10613 6.0742 6.3102 6.18547C5.90431 6.21062 5.49989 6.25944 5.0413 6.31683C5.01655 6.46266 4.97015 6.60849 4.97012 6.75433C4.96687 23.6891 4.96706 40.6238 4.96712 57.5586C4.96712 57.6659 4.95416 57.7757 4.97329 57.8797C4.98671 57.9525 5.04451 58.0173 5.10866 58.1301Z" fill="#FEFEFE"/>
<path d="M5.06811 6.30664C5.09636 6.4997 5.09916 6.7025 5.09916 6.9053C5.09937 23.4889 5.09937 40.0726 5.09926 56.6562C5.09926 57.1095 5.0979 57.5628 5.08986 58.0507C5.04457 58.0168 4.98677 57.9521 4.97335 57.8792C4.95422 57.7753 4.96719 57.6654 4.96718 57.5581C4.96712 40.6233 4.96693 23.6886 4.97018 6.75388C4.97021 6.60804 5.01661 6.46221 5.06811 6.30664Z" fill="#629FDE"/>
<path d="M61.7387 35.9024C61.5788 36.0822 61.4476 36.2563 61.2864 36.3963C61.1386 36.5246 61.1136 36.6422 61.1614 36.8315C61.5051 38.1949 61.8335 39.562 62.1677 40.9277C62.6547 42.9181 63.1426 44.9082 63.6292 46.8986C63.6461 46.9678 63.6607 47.0393 63.6623 47.11C63.6669 47.3064 63.5929 47.3965 63.3909 47.4131C63.212 47.4277 63.0312 47.4186 62.8513 47.4187C62.1674 47.4191 61.4835 47.4203 60.7997 47.4184C60.4191 47.4174 60.3836 47.3899 60.2898 47.0125C59.6572 44.4676 59.0261 41.9223 58.3943 39.3773C58.2831 38.9291 58.1709 38.4812 58.0468 37.9836C57.7638 38.1254 57.5126 38.2514 57.2314 38.3923C57.2314 38.52 57.2314 38.6483 57.2314 38.7766C57.2314 41.449 57.2314 44.1215 57.2314 46.794C57.2314 46.8775 57.2348 46.9612 57.2305 47.0445C57.2161 47.3216 57.1357 47.4052 56.8619 47.4173C56.7062 47.4241 56.55 47.4188 56.394 47.4188C55.7101 47.4191 55.0263 47.4211 54.3424 47.419C53.9256 47.4178 53.866 47.3572 53.8659 46.9391C53.8653 43.4314 53.8657 39.9238 53.8657 36.4162C53.8657 33.4455 53.8656 30.4748 53.8656 27.504C53.8656 27.4683 53.8649 27.4325 53.8654 27.3967C53.8709 27.0265 53.9385 26.9568 54.3091 26.957C55.0768 26.9574 55.8444 26.962 56.612 26.9629C57.5718 26.964 58.5318 26.974 59.4914 26.9604C60.6266 26.9442 61.4391 27.4648 61.9943 28.4158C62.405 29.1195 62.6171 29.8885 62.6361 30.6998C62.6555 31.5345 62.6615 32.3706 62.637 33.205C62.6085 34.1783 62.3385 35.0841 61.7387 35.9024ZM58.768 34.0614C58.9902 33.8718 59.1898 33.6691 59.1902 33.3494C59.1913 32.4682 59.1964 31.5871 59.1917 30.706C59.1901 30.4028 59.0807 30.2955 58.7797 30.2901C58.3487 30.2824 57.9176 30.2864 57.4865 30.2893C57.4074 30.2898 57.3285 30.3089 57.2602 30.3181C57.2602 31.8217 57.2602 33.3016 57.2602 34.8253C57.4944 34.732 57.6996 34.6683 57.8874 34.5714C58.1733 34.4237 58.4471 34.253 58.768 34.0614Z" fill="white"/>
<path d="M9.19147 35.584C9.19169 33.8301 9.19283 32.1119 9.19176 30.3938C9.19123 29.5499 9.44633 28.7961 10.0001 28.1532C10.6329 27.4186 11.4386 27.0061 12.4129 26.9723C13.1559 26.9465 13.9013 26.9446 14.6442 26.9715C16.3619 27.0335 17.77 28.4354 17.8585 30.1448C17.8629 30.2281 17.8629 30.3117 17.8629 30.3952C17.8632 35.0008 17.8647 39.6064 17.8626 44.212C17.8619 45.7374 16.9691 46.9879 15.5203 47.4724C15.2171 47.5737 14.8888 47.6444 14.5707 47.6494C13.7682 47.662 12.961 47.6747 12.1629 47.6049C10.6301 47.4708 9.35837 46.1642 9.21466 44.6393C9.19344 44.4141 9.19254 44.1865 9.19242 43.96C9.19101 41.1799 9.19149 38.3999 9.19147 35.584ZM12.5352 40.918C12.5352 41.777 12.531 42.636 12.5372 43.4949C12.5401 43.9024 12.7884 44.1748 13.1926 44.2062C13.4303 44.2246 13.6739 44.2221 13.9102 44.1927C14.2565 44.1495 14.4647 43.9174 14.5047 43.5731C14.5143 43.4906 14.5097 43.4063 14.5098 43.3228C14.5137 39.3262 14.5175 35.3296 14.5209 31.3329C14.521 31.2257 14.5262 31.1172 14.5129 31.0113C14.4701 30.6713 14.25 30.4383 13.9062 30.4047C13.6569 30.3803 13.4014 30.3783 13.1522 30.4023C12.7819 30.4381 12.5545 30.7021 12.5365 31.0756C12.5314 31.1827 12.5352 31.2903 12.5352 31.3976C12.5352 34.5472 12.5352 37.6968 12.5352 40.918Z" fill="white"/>
<path d="M34.3892 27.3688C35.3268 27.9075 35.8921 28.6861 36.1025 29.7137C36.1427 29.9105 36.1518 30.1162 36.1527 30.3179C36.1577 31.3556 36.1569 32.3934 36.1548 33.4312C36.1541 33.8169 36.1011 33.8702 35.7198 33.8713C34.8921 33.8738 34.0644 33.8739 33.2367 33.8712C32.8722 33.87 32.8253 33.8213 32.824 33.455C32.8215 32.7871 32.8259 32.119 32.821 31.4511C32.8195 31.2491 32.8161 31.0438 32.7797 30.8461C32.7178 30.5096 32.4686 30.3091 32.1249 30.2949C31.9453 30.2875 31.765 30.2912 31.5851 30.2937C31.1145 30.3003 30.8431 30.5499 30.8302 31.0163C30.8171 31.4931 30.8268 31.9705 30.8267 32.4476C30.8266 32.7578 30.8306 33.068 30.8257 33.378C30.8206 33.7075 30.9346 33.9693 31.1876 34.1959C32.3906 35.2735 33.5887 36.3568 34.7785 37.4488C35.6961 38.291 36.1858 39.3225 36.1633 40.5862C36.1432 41.719 36.1375 42.8529 36.16 43.9856C36.191 45.5519 35.0882 47.0126 33.4404 47.3542C33.2309 47.3977 33.0123 47.4113 32.7976 47.4136C32.1379 47.4206 31.4779 47.4257 30.8184 47.4132C28.9735 47.378 27.5252 45.9385 27.4982 44.097C27.4797 42.8328 27.4924 41.5682 27.4941 40.3038C27.4946 39.9482 27.5598 39.88 27.9105 39.8784C28.7501 39.8745 29.5899 39.8743 30.4295 39.8785C30.7543 39.8801 30.8245 39.9534 30.8256 40.2866C30.8289 41.2766 30.8246 42.2667 30.8297 43.2568C30.8304 43.3974 30.8429 43.5469 30.892 43.6765C30.9883 43.9307 31.1873 44.0795 31.4655 44.0955C31.6568 44.1065 31.8492 44.1014 32.0411 44.0985C32.5308 44.091 32.7917 43.8384 32.804 43.3465C32.8132 42.9769 32.8069 42.607 32.8068 42.2372C32.8067 41.8078 32.8012 41.3783 32.8067 40.9489C32.8106 40.6425 32.6998 40.4029 32.4668 40.1963C31.2854 39.1483 30.1015 38.1027 28.9383 37.0348C28.2277 36.3823 27.7323 35.5878 27.5405 34.6294C27.5126 34.49 27.4953 34.346 27.495 34.2041C27.4919 32.9039 27.4823 31.6036 27.497 30.3035C27.5138 28.8169 28.4224 27.5829 29.8452 27.1281C30.1818 27.0206 30.5499 26.9843 30.9058 26.9694C31.5046 26.9444 32.1052 26.9697 32.7049 26.9609C33.2942 26.9523 33.8456 27.0853 34.3892 27.3688Z" fill="white"/>
<path d="M45.5765 37.2309C45.5765 33.974 45.5764 30.7528 45.5764 27.5317C45.5764 27.4959 45.576 27.4601 45.5763 27.4243C45.5795 27.0137 45.623 26.9669 46.0239 26.9638C46.4198 26.9608 46.8157 26.9623 47.2116 26.9623C48.9632 26.9626 50.7149 26.963 52.4665 26.9634C52.5265 26.9634 52.5867 26.9601 52.6464 26.9639C52.8905 26.9796 52.9627 27.0491 52.9843 27.2877C52.9875 27.3232 52.9853 27.3592 52.9853 27.395C52.9858 28.2063 52.9883 29.0175 52.9859 29.8288C52.9847 30.219 52.9158 30.2867 52.5242 30.2874C51.4565 30.2895 50.3887 30.2882 49.3209 30.2882C49.2019 30.2882 49.0829 30.2882 48.939 30.2882C48.939 31.4473 48.939 32.5848 48.939 33.755C49.0787 33.7618 49.2066 33.7733 49.3346 33.7735C50.2224 33.775 51.1102 33.773 51.998 33.7746C52.397 33.7753 52.4642 33.8368 52.4659 34.2242C52.4695 35.0354 52.4695 35.8467 52.4645 36.6579C52.4622 37.0204 52.3847 37.0926 52.0138 37.0936C51.126 37.0963 50.2382 37.0945 49.3504 37.0944C49.2212 37.0944 49.092 37.0944 48.9389 37.0944C48.9389 39.4373 48.9389 41.7445 48.9389 44.0957C49.0799 44.0957 49.2078 44.0957 49.3357 44.0957C50.3914 44.0956 51.4472 44.0947 52.503 44.096C52.9271 44.0966 52.9842 44.1521 52.9852 44.5662C52.9873 45.3655 52.9884 46.1648 52.9858 46.9641C52.9846 47.3553 52.9205 47.4181 52.5201 47.4184C50.3606 47.4199 48.2011 47.4199 46.0416 47.4185C45.6294 47.4182 45.5767 47.3609 45.5766 46.9302C45.5761 43.7091 45.5764 40.4879 45.5765 37.2309Z" fill="white"/>
<path d="M27.6406 27.2078C26.9162 29.5197 26.1897 31.8027 25.4616 34.0851C25.128 35.1309 24.786 36.1742 24.46 37.2223C24.3975 37.4233 24.3639 37.6415 24.3634 37.8519C24.3574 40.8349 24.3593 43.8179 24.3593 46.8009C24.3593 46.8964 24.3639 46.9921 24.3576 47.0872C24.3417 47.3309 24.2729 47.4129 24.0286 47.4148C23.1407 47.4218 22.2527 47.4218 21.3648 47.4154C21.1036 47.4135 21.0325 47.3285 21.0189 47.065C21.0147 46.9817 21.0184 46.898 21.0184 46.8145C21.0184 43.8195 21.0207 40.8246 21.0138 37.8296C21.0132 37.6083 20.9731 37.3785 20.9058 37.167C19.8814 33.9506 18.8494 30.7365 17.8194 27.5218C17.7976 27.4537 17.7732 27.3857 17.7597 27.3157C17.7202 27.1102 17.801 26.9934 18.0059 26.9663C18.0885 26.9554 18.1737 26.9627 18.2576 26.9627C18.9896 26.9626 19.7215 26.9607 20.4535 26.9635C20.9684 26.9655 20.9871 26.8689 21.1801 27.4771C21.6523 28.9652 22.1329 30.4506 22.6105 31.9369C22.6241 31.9791 22.6422 32.0198 22.687 32.1356C22.7563 31.9471 22.8066 31.8238 22.8473 31.6974C23.3003 30.2901 23.7517 28.8824 24.2036 27.4748C24.2255 27.4067 24.246 27.338 24.27 27.2706C24.3712 26.9868 24.3973 26.9646 24.7145 26.9635C25.5544 26.9608 26.3944 26.9641 27.2343 26.9607C27.4136 26.96 27.5729 26.9781 27.6406 27.2078Z" fill="white"/>
<path d="M44.2064 30.2764C43.5984 30.2764 42.9905 30.2764 42.3462 30.2764C42.3462 30.4654 42.3462 30.6057 42.3462 30.746C42.3462 36.1012 42.3462 41.4565 42.3462 46.8117C42.3462 47.4188 42.3463 47.4187 41.7183 47.4187C40.9867 47.4186 40.255 47.4193 39.5234 47.4185C39.0439 47.418 39.0071 47.3826 39.0069 46.9131C39.0062 45.0644 39.0068 43.2157 39.0068 41.3671C39.0068 37.8247 39.0068 34.2824 39.0068 30.7401C39.0068 30.61 39.0068 30.4799 39.0068 30.3144C38.8884 30.3041 38.7867 30.2878 38.685 30.2875C38.0853 30.2856 37.4856 30.2901 36.8859 30.287C36.5302 30.2851 36.4565 30.215 36.4553 29.8731C36.4524 29.0502 36.452 28.2272 36.4566 27.4043C36.4587 27.0239 36.5193 26.9631 36.8928 26.9629C39.4236 26.9613 41.9544 26.961 44.4851 26.9676C44.6054 26.9679 44.7255 27.0377 44.8349 27.1249C44.8122 27.2913 44.7905 27.408 44.79 27.5248C44.7868 28.2498 44.789 28.9748 44.7881 29.6999C44.7876 30.1005 44.7858 30.0957 44.388 30.1513C44.3228 30.1604 44.2667 30.2331 44.2064 30.2764Z" fill="white"/>
<path d="M50.8064 24.6801C50.8053 24.7967 50.8117 24.881 50.8018 24.9634C50.7671 25.2534 50.6566 25.3583 50.3575 25.3623C49.8779 25.3687 49.3981 25.3688 48.9185 25.3621C48.6033 25.3577 48.4928 25.2436 48.473 24.93C48.4685 24.8587 48.4719 24.787 48.4719 24.7154C48.4719 22.0562 48.4718 19.3969 48.4718 16.7376C48.4718 16.6899 48.4711 16.6422 48.4719 16.5945C48.4794 16.165 48.5948 16.0506 49.0349 16.0486C49.5865 16.0461 50.1389 16.0648 50.6896 16.0421C51.0597 16.0268 51.2633 16.1786 51.3974 16.511C51.9416 17.8598 52.4993 19.2032 53.053 20.5481C53.092 20.6428 53.139 20.7341 53.1928 20.8496C53.3311 20.7291 53.2826 20.6026 53.2829 20.495C53.2872 19.231 53.2862 17.9669 53.2875 16.7029C53.2876 16.5958 53.2821 16.4865 53.301 16.3821C53.3379 16.1779 53.4576 16.0582 53.6681 16.0539C54.1954 16.0431 54.7235 16.0412 55.2507 16.0559C55.4812 16.0623 55.5802 16.1905 55.5995 16.4301C55.6062 16.5131 55.6022 16.597 55.6022 16.6805C55.6024 19.3636 55.6024 22.0467 55.6024 24.7298C55.6024 24.7775 55.6032 24.8252 55.6022 24.8729C55.5944 25.2761 55.5157 25.3606 55.1178 25.3634C54.5302 25.3676 53.9421 25.3504 53.3552 25.3697C53.0162 25.3808 52.8238 25.251 52.7019 24.9392C52.4024 24.1731 52.0823 23.415 51.7702 22.6538C51.535 22.08 51.3003 21.506 51.0632 20.9329C51.015 20.8163 50.9573 20.7036 50.9097 20.6015C50.8597 20.6074 50.8452 20.6051 50.8369 20.6112C50.8283 20.6173 50.8214 20.6316 50.8212 20.6424C50.8157 20.9279 50.8075 21.2134 50.8071 21.4989C50.8055 22.5483 50.8064 23.5976 50.8064 24.6801Z" fill="white"/>
<path d="M16.7331 16.9764C16.7357 16.7751 16.7273 16.6072 16.7434 16.4417C16.7699 16.1682 16.88 16.0714 17.1595 16.0499C17.2072 16.0462 17.2554 16.0486 17.3034 16.0486C18.2627 16.0489 19.2224 16.0337 20.1812 16.0567C20.5977 16.0667 21.0206 16.1198 21.426 16.2148C22.5195 16.4708 23.182 17.1604 23.341 18.2742C23.4045 18.7194 23.4166 19.177 23.399 19.6269C23.3788 20.1429 23.1921 20.5516 22.8006 21.158C22.8583 21.2086 22.9159 21.2644 22.9788 21.3133C23.2929 21.557 23.5013 21.8748 23.6022 22.2525C23.777 22.9065 23.7358 23.5564 23.4709 24.1787C23.2321 24.7399 22.7501 25.0303 22.1855 25.1776C21.8402 25.2677 21.4793 25.3383 21.1241 25.3446C19.8173 25.3676 18.5101 25.3626 17.203 25.3625C16.8519 25.3625 16.7636 25.2708 16.7381 24.9168C16.7295 24.7981 16.7332 24.6784 16.7332 24.5592C16.733 22.0431 16.7331 19.527 16.7331 16.9764ZM19.2699 18.3824C19.0673 18.4631 19.036 18.6353 19.0346 18.8218C19.0323 19.1074 19.0277 19.3931 19.0324 19.6786C19.0378 20.013 19.1471 20.1433 19.4786 20.1521C19.8365 20.1616 20.1962 20.1466 20.5535 20.1201C20.8577 20.0976 21.0432 19.9392 21.0844 19.6351C21.1189 19.3806 21.1135 19.1145 21.082 18.8589C21.048 18.5836 20.8677 18.4007 20.5791 18.3863C20.1626 18.3654 19.7447 18.3697 19.2699 18.3824ZM19.5069 23.481C19.8785 23.4783 20.2507 23.4886 20.6213 23.4694C21.0264 23.4483 21.217 23.2465 21.2323 22.8664C21.252 22.3773 21.1087 22.1424 20.6824 22.0994C20.2552 22.0562 19.8209 22.0634 19.3907 22.0771C19.1443 22.0849 19.0416 22.2211 19.0279 22.4803C19.0185 22.6587 19.0209 22.8379 19.0247 23.0166C19.0314 23.3322 19.1024 23.4085 19.5069 23.481Z" fill="white"/>
<path d="M25.0739 49.669C25.5388 50.1145 25.7428 50.6638 25.8122 51.2516C25.8976 51.9747 25.9111 52.7029 25.7126 53.4186C25.5849 53.879 25.3602 54.2759 25.0002 54.5966C24.774 54.7982 24.7745 54.804 24.9206 55.0752C25.3226 55.8218 25.7277 56.5667 26.1312 57.3124C26.171 57.3859 26.2162 57.4576 26.2461 57.535C26.3856 57.8965 26.2026 58.2 25.8165 58.2121C25.313 58.2279 24.8086 58.2124 24.3048 58.2186C24.074 58.2215 23.9666 58.0866 23.8732 57.9041C23.5305 57.2345 23.1802 56.5688 22.8329 55.9015C22.7998 55.838 22.7681 55.7737 22.7352 55.7101C22.4974 55.2507 22.4695 55.2356 21.9554 55.2861C21.6604 55.3152 21.5262 55.4485 21.5232 55.7476C21.5169 56.3561 21.5215 56.9647 21.5203 57.5732C21.5201 57.6684 21.5241 57.7658 21.5062 57.8583C21.4637 58.0767 21.335 58.2063 21.1158 58.211C20.6001 58.2223 20.0838 58.2231 19.5682 58.2111C19.3248 58.2054 19.1949 58.0699 19.1709 57.8307C19.1568 57.689 19.1689 57.5447 19.1689 57.4015C19.169 54.8122 19.169 52.2229 19.169 49.6335C19.169 49.55 19.1661 49.4663 19.1698 49.383C19.1849 49.0405 19.3136 48.9115 19.6534 48.8951C19.6774 48.894 19.7014 48.8946 19.7254 48.8946C20.7334 48.8963 21.742 48.8776 22.749 48.9091C23.1992 48.9232 23.6511 49.0164 24.0933 49.114C24.4594 49.1949 24.7807 49.3903 25.0739 49.669ZM23.3755 51.4004C23.238 51.3366 23.104 51.2289 22.9622 51.2175C22.6055 51.1889 22.2449 51.1934 21.8866 51.2051C21.667 51.2123 21.5348 51.3495 21.5261 51.5714C21.5126 51.9159 21.5118 52.2615 21.5221 52.6061C21.5288 52.8334 21.6486 52.9771 21.8717 52.984C22.2651 52.996 22.6608 52.9869 23.0532 52.9573C23.3057 52.9382 23.4709 52.7626 23.5133 52.5201C23.5768 52.1567 23.6171 51.7871 23.3755 51.4004Z" fill="white"/>
<path d="M47.2192 18.2137C47.3655 19.3487 47.2751 20.4586 47.291 21.5661C47.2981 22.0652 47.2834 22.5678 47.2322 23.064C47.1004 24.3397 46.2743 25.225 45.0086 25.5052C44.2812 25.6663 43.5576 25.6586 42.8333 25.502C41.5575 25.2261 40.7349 24.3132 40.6049 23.0221C40.5751 22.7261 40.5598 22.4274 40.5585 22.1298C40.5541 21.0924 40.5447 20.0547 40.5671 19.0177C40.5756 18.6282 40.6255 18.2296 40.727 17.8541C40.9789 16.9223 41.5796 16.2938 42.5173 16.0154C43.4595 15.7356 44.4096 15.7306 45.3493 16.0235C46.3385 16.332 46.932 17.0129 47.1666 18.0112C47.1803 18.0691 47.1979 18.1262 47.2192 18.2137ZM42.9837 22.7792C43.2269 23.2449 43.6445 23.4156 44.2232 23.299C44.5779 23.2276 44.8043 23.0201 44.8901 22.6795C44.942 22.4735 44.9711 22.2567 44.9731 22.0444C44.9819 21.1514 44.9842 20.2582 44.9712 19.3653C44.9678 19.1307 44.927 18.8885 44.8539 18.6659C44.8053 18.5181 44.6945 18.3623 44.567 18.2732C43.8919 17.8012 42.957 18.2132 42.9168 19.0219C42.8673 20.0195 42.8738 21.0201 42.8718 22.0195C42.8713 22.2543 42.9336 22.4893 42.9837 22.7792Z" fill="white"/>
<path d="M33.397 56.8249C32.8911 57.8617 32.0328 58.3134 30.9473 58.4309C30.3815 58.4922 29.8236 58.4731 29.2677 58.3557C27.8167 58.0492 27.0708 57.0532 27.0077 55.6819C26.943 54.2774 26.943 52.8656 27.0061 51.461C27.0715 50.0076 27.8933 48.9877 29.4272 48.7441C30.2047 48.6206 30.9796 48.6226 31.7396 48.8602C32.7001 49.1605 33.3069 49.8043 33.5512 50.7692C33.6353 51.1014 33.6859 51.4504 33.6909 51.7926C33.708 52.9612 33.6964 54.1303 33.6988 55.2992C33.6998 55.8188 33.5975 56.3173 33.397 56.8249ZM31.3247 55.4382C31.3431 55.2969 31.3769 55.1557 31.3775 55.0143C31.3822 54.0487 31.3867 53.083 31.3747 52.1175C31.3721 51.9071 31.3183 51.6933 31.2603 51.4888C31.1948 51.2575 31.0341 51.0888 30.7962 51.0305C29.9211 50.8157 29.3329 51.08 29.3025 52.01C29.3014 52.0458 29.2977 52.0815 29.2977 52.1172C29.2975 53.0828 29.2934 54.0484 29.3016 55.014C29.3032 55.2023 29.3324 55.396 29.3844 55.5771C29.4834 55.922 29.7263 56.113 30.09 56.1398C30.1974 56.1477 30.3057 56.1495 30.4134 56.1474C30.9343 56.1373 31.1298 55.9947 31.3247 55.4382Z" fill="white"/>
<path d="M43.8896 53.3629C43.8911 53.6824 43.8989 53.9688 43.8914 54.2547C43.8827 54.5863 43.7647 54.7013 43.4262 54.7042C42.8027 54.7094 42.1791 54.7037 41.5556 54.7065C41.1132 54.7084 41.0265 54.7953 41.0203 55.2245C41.0107 55.8897 41.0451 55.9248 41.729 55.9257C42.6524 55.9268 43.5757 55.9247 44.499 55.9268C44.9535 55.9278 45.0489 56.0222 45.0524 56.4696C45.0556 56.875 45.0536 57.2805 45.0541 57.6859C45.0546 58.1151 44.9598 58.2166 44.5313 58.2172C42.9004 58.2194 41.2696 58.2181 39.6388 58.2181C39.4349 58.2181 39.2307 58.2254 39.0273 58.2154C38.7481 58.2015 38.6443 58.0995 38.6116 57.8224C38.6019 57.74 38.6066 57.6557 38.6066 57.5723C38.6064 54.9251 38.6062 52.2779 38.6068 49.6307C38.6069 48.9528 38.6644 48.8955 39.3394 48.8953C41.0182 48.8947 42.697 48.8948 44.3758 48.8949C44.4837 48.895 44.592 48.8922 44.6994 48.9007C44.8926 48.9158 45.029 49.028 45.0353 49.2134C45.054 49.7611 45.058 50.3098 45.0473 50.8577C45.0436 51.0512 44.8921 51.1699 44.6876 51.1935C44.5928 51.2045 44.496 51.1988 44.4001 51.1989C43.4767 51.1991 42.5534 51.199 41.6301 51.1991C41.5461 51.1991 41.4613 51.1936 41.3786 51.2036C41.3089 51.2121 41.2235 51.2194 41.1762 51.2617C40.8964 51.5119 41.0346 51.8407 41.0414 52.1363C41.0457 52.3234 41.2064 52.407 41.4795 52.4093C42.067 52.4144 42.6546 52.4112 43.2422 52.4118C43.3381 52.4119 43.4348 52.4072 43.5297 52.4172C43.755 52.4411 43.8497 52.5326 43.8684 52.7578C43.8841 52.9477 43.8828 53.1389 43.8896 53.3629Z" fill="white"/>
<path d="M16.977 49.263C17.7047 49.6341 18.082 50.2254 18.2383 50.9795C18.3879 51.7012 18.4048 52.4252 18.2557 53.1454C18.0059 54.3521 17.3062 55.0206 16.0807 55.2065C15.6566 55.2708 15.2213 55.2635 14.791 55.2862C14.6834 55.2919 14.5751 55.2848 14.4673 55.2876C14.0874 55.2975 13.9728 55.4067 13.9691 55.7799C13.9645 56.2569 13.968 56.7339 13.9679 57.2109C13.9679 57.366 13.9697 57.521 13.9675 57.676C13.9613 58.1299 13.8754 58.2151 13.4162 58.2172C12.9965 58.2191 12.5767 58.2208 12.157 58.2164C11.7597 58.2122 11.6567 58.1162 11.6564 57.7361C11.6541 54.9574 11.6535 52.1788 11.6556 49.4002C11.6559 49.0251 11.7768 48.8985 12.1455 48.8973C13.2128 48.8938 14.2805 48.8846 15.3474 48.9083C15.8983 48.9206 16.4443 49.0136 16.977 49.263ZM15.9981 51.6673C15.9213 51.3767 15.7236 51.2219 15.4303 51.2099C15.0601 51.1948 14.6888 51.1934 14.3185 51.2028C14.0955 51.2085 13.9838 51.3133 13.9751 51.533C13.9604 51.901 13.9606 52.2703 13.9727 52.6385C13.9799 52.8565 14.0899 52.9777 14.3061 52.9842C14.6998 52.996 15.0951 52.9902 15.4884 52.9682C15.7722 52.9524 15.9623 52.7781 15.9988 52.5009C16.0324 52.2454 16.0124 51.983 15.9981 51.6673Z" fill="white"/>
<path d="M50.2804 51.679C50.1224 51.1625 49.9006 50.9867 49.397 50.9666C49.2778 50.9619 49.1566 50.9677 49.0384 50.9839C48.6456 51.0378 48.4054 51.2475 48.3255 51.6339C48.2799 51.8544 48.2561 52.0829 48.254 52.3081C48.246 53.1549 48.2463 54.002 48.2542 54.8489C48.2562 55.0621 48.2814 55.2782 48.3243 55.4872C48.4083 55.8962 48.6833 56.1171 49.1067 56.1425C49.1785 56.1467 49.2506 56.1482 49.3225 56.1476C49.9327 56.143 50.1498 55.9639 50.2815 55.3582C50.2917 55.3116 50.3029 55.2652 50.3143 55.2189C50.3987 54.874 50.5185 54.7883 50.8796 54.8385C51.0569 54.8631 51.231 54.9114 51.4066 54.9487C51.6993 55.0108 51.9928 55.0692 52.2844 55.1358C52.5537 55.1974 52.6522 55.3097 52.64 55.5879C52.592 56.6883 52.0795 57.808 50.8003 58.2313C49.8161 58.557 48.8171 58.5654 47.8324 58.2458C46.7529 57.8954 46.1911 57.0971 46.0043 56.0141C45.9619 55.7685 45.9434 55.5161 45.942 55.2667C45.9358 54.1216 45.9298 52.9763 45.9457 51.8313C45.9504 51.4887 45.9956 51.1399 46.0747 50.8062C46.3188 49.7754 46.9712 49.1107 47.9956 48.8312C48.8931 48.5863 49.8017 48.5911 50.6933 48.8568C51.7317 49.1664 52.3287 49.8941 52.5603 50.9309C52.6042 51.1277 52.6287 51.331 52.6393 51.5325C52.6535 51.8036 52.5885 51.9034 52.3208 51.9723C51.8337 52.0977 51.3425 52.2086 50.8498 52.3103C50.6481 52.352 50.4438 52.2181 50.3649 52.0177C50.326 51.9188 50.3117 51.8103 50.2804 51.679Z" fill="white"/>
<path d="M35.051 53.3398C35.0507 52.0635 35.0504 50.8229 35.0504 49.5824C35.0504 49.487 35.0453 49.3908 35.0549 49.2963C35.0796 49.0531 35.1992 48.9102 35.439 48.9028C35.9423 48.8875 36.4466 48.8888 36.95 48.9011C37.185 48.9068 37.3215 49.0492 37.3573 49.2807C37.3717 49.3741 37.3651 49.4711 37.3651 49.5664C37.3653 52.8348 37.3687 56.1032 37.3601 59.3715C37.3591 59.7261 37.3179 60.0867 37.2442 60.4337C36.9888 61.6374 36.2227 62.3406 35.0236 62.5871C34.2488 62.7463 33.4763 62.7305 32.7088 62.526C31.243 62.1355 30.6931 60.9294 30.6568 59.7864C30.649 59.5402 30.7253 59.4312 30.9649 59.3723C31.4298 59.2581 31.8972 59.1521 32.3675 59.0629C32.7079 58.9983 32.8926 59.1342 32.9714 59.4629C33.1599 60.2483 33.377 60.414 34.1574 60.3684C34.6387 60.3403 34.905 60.1166 34.986 59.6341C35.0292 59.3767 35.0451 59.1121 35.0459 58.8507C35.0516 57.0257 35.0502 55.2006 35.051 53.3398Z" fill="white"/>
<path d="M35.8191 23.2452C35.8524 23.3754 35.8847 23.4804 35.8862 23.5858C35.8923 24.0031 35.896 24.4206 35.8869 24.8378C35.8774 25.2734 35.7838 25.3617 35.3566 25.3784C35.2968 25.3808 35.2367 25.3795 35.1768 25.3795C33.0901 25.3795 31.0035 25.3798 28.9169 25.3791C28.2299 25.3788 28.1759 25.3245 28.1759 24.6514C28.1759 22.0279 28.1759 19.4044 28.1759 16.7808C28.1759 16.7451 28.1757 16.7093 28.1758 16.6735C28.1781 16.145 28.2737 16.0494 28.8039 16.0483C29.1996 16.0475 29.5954 16.0453 29.9911 16.0489C30.3828 16.0525 30.5049 16.1696 30.5083 16.5642C30.5141 17.2558 30.5099 17.9475 30.5099 18.6391C30.5099 19.9151 30.5096 21.1911 30.5101 22.4671C30.5103 23.0217 30.5612 23.0724 31.1351 23.0731C32.5262 23.0747 33.9172 23.0741 35.3083 23.075C35.4874 23.0751 35.6734 23.0549 35.8191 23.2452Z" fill="white"/>
<path d="M58.0169 52.3387C58.0169 54.103 58.017 55.8316 58.0169 57.5603C58.0169 57.6438 58.0217 57.7276 58.0153 57.8106C57.9941 58.0864 57.8878 58.2069 57.6144 58.2129C57.1111 58.224 56.6072 58.2239 56.1039 58.2129C55.8247 58.2068 55.7245 58.0923 55.7086 57.8109C55.7019 57.6921 55.7074 57.5725 55.7074 57.4533C55.7074 55.6054 55.7075 53.7575 55.7073 51.9096C55.7073 51.8024 55.7131 51.6944 55.7031 51.5879C55.6776 51.3152 55.5671 51.2051 55.2893 51.2013C54.7619 51.1939 54.2343 51.1988 53.7068 51.1984C53.6109 51.1983 53.5144 51.2037 53.4192 51.1953C53.1763 51.174 53.049 51.0867 53.04 50.8482C53.0197 50.3133 53.0208 49.7765 53.0417 49.2416C53.0511 49.0013 53.1737 48.9189 53.4211 48.8971C53.4925 48.8908 53.5649 48.8948 53.6368 48.8948C55.7708 48.8946 57.9049 48.8945 60.0389 48.8944C60.0869 48.8944 60.1349 48.8937 60.1828 48.8949C60.5856 48.9046 60.6857 49.0029 60.6899 49.4124C60.6944 49.8415 60.6947 50.2708 60.6898 50.6999C60.6855 51.0749 60.5694 51.1931 60.195 51.197C59.6556 51.2026 59.116 51.1977 58.5765 51.1992C58.0976 51.2006 58.0221 51.2779 58.0174 51.7667C58.0157 51.9455 58.017 52.1243 58.0169 52.3387Z" fill="white"/>
<path d="M37.0785 20.1191C37.0785 18.9264 37.0774 17.7695 37.079 16.6127C37.0796 16.1463 37.178 16.0507 37.6505 16.0489C38.0583 16.0473 38.4661 16.045 38.8738 16.0496C39.2533 16.0539 39.3677 16.1642 39.368 16.5445C39.3703 19.3234 39.3705 22.1023 39.3676 24.8812C39.3672 25.2639 39.2608 25.3612 38.8685 25.3647C38.4488 25.3685 38.029 25.3672 37.6092 25.3644C37.1707 25.3615 37.0797 25.274 37.0792 24.842C37.0773 23.2797 37.0785 21.7173 37.0785 20.1191Z" fill="white"/>
<path d="M24.5694 18.4008C24.5691 17.7804 24.5678 17.1958 24.5687 16.6113C24.5693 16.153 24.6746 16.0504 25.1446 16.0488C25.5525 16.0475 25.9604 16.0448 26.3683 16.0497C26.7513 16.0543 26.8579 16.1595 26.8581 16.5431C26.8599 19.3228 26.8599 22.1024 26.858 24.8821C26.8578 25.2703 26.7624 25.3608 26.3642 25.3643C25.9324 25.3682 25.5004 25.3682 25.0686 25.3641C24.6729 25.3603 24.5691 25.2514 24.5687 24.8429C24.5677 23.6618 24.5691 22.4808 24.5694 21.2997C24.5696 20.3453 24.5694 19.3909 24.5694 18.4008Z" fill="white"/>
<path d="M32.4792 16.0542C32.8259 16.0529 33.1377 16.0476 33.4494 16.0515C33.8023 16.0558 33.9228 16.1716 33.9247 16.5279C33.9296 17.4102 33.9261 18.2925 33.9258 19.1749C33.9258 19.2464 33.9216 19.3181 33.9255 19.3894C33.9417 19.6921 34.0668 19.8213 34.3709 19.828C34.7185 19.8356 35.0664 19.8265 35.414 19.8313C35.7662 19.8363 35.864 19.9283 35.87 20.2787C35.8777 20.7316 35.8761 21.1849 35.8709 21.6379C35.8665 22.0306 35.7738 22.1249 35.3789 22.1262C34.2998 22.1298 33.2207 22.1288 32.1416 22.1257C31.7278 22.1245 31.6161 22.0085 31.6158 21.5861C31.6146 19.9288 31.6157 18.2714 31.6161 16.6141C31.6161 16.5784 31.6145 16.5425 31.6167 16.5068C31.6367 16.1777 31.7567 16.0594 32.0845 16.0508C32.2043 16.0477 32.3243 16.0528 32.4792 16.0542Z" fill="white"/>
<path d="M59.8136 56.8209C60.3302 56.71 60.7529 57.1556 60.6971 57.609C60.6559 57.944 60.4251 58.1998 60.0818 58.2595C59.7783 58.3122 59.4227 58.112 59.2955 57.8166C59.1684 57.5216 59.2495 57.1802 59.5062 56.9811C59.5892 56.9167 59.693 56.8788 59.8136 56.8209ZM60.3514 57.9433C60.4067 57.8414 60.4877 57.7451 60.512 57.6363C60.5658 57.3951 60.4671 57.1908 60.2749 57.0458C60.0976 56.9121 59.8929 56.911 59.7051 57.0247C59.4965 57.1511 59.3735 57.3502 59.4235 57.5911C59.4517 57.7272 59.5703 57.8447 59.6779 58.0078C59.8988 58.1606 60.1107 58.1875 60.3514 57.9433Z" fill="#629FDE"/>
<path d="M44.2383 30.2829C44.2675 30.2331 44.3236 30.1604 44.3888 30.1513C44.7866 30.0958 44.7884 30.1006 44.7889 29.7C44.7898 28.9749 44.7876 28.2499 44.7908 27.5248C44.7913 27.4081 44.813 27.2914 44.8463 27.1533C44.883 27.2475 44.911 27.3631 44.9116 27.4787C44.9156 28.2411 44.9138 29.0034 44.9137 29.7658C44.9137 30.2477 44.8671 30.2932 44.3771 30.2918C44.3412 30.2916 44.3053 30.2901 44.2383 30.2829Z" fill="#629FDE"/>
<path d="M59.6479 57.9706C59.57 57.8448 59.4514 57.7273 59.4232 57.5912C59.3733 57.3503 59.4962 57.1512 59.7049 57.0248C59.8926 56.9111 60.0973 56.9122 60.2746 57.0459C60.4669 57.1909 60.5655 57.3952 60.5117 57.6364C60.4874 57.7452 60.4064 57.8415 60.3162 57.9405C60.2814 57.9376 60.2558 57.9133 60.2637 57.8861C60.3162 57.7031 60.1323 57.5504 60.2671 57.3844C60.2833 57.3645 60.2097 57.2311 60.1513 57.2009C60.011 57.1284 59.8571 57.1128 59.712 57.2316C59.712 57.4513 59.712 57.6739 59.695 57.9142C59.6679 57.9448 59.6579 57.9577 59.6479 57.9706Z" fill="#FCE8E7"/>
<path d="M60.2935 57.9508C60.1109 58.1876 59.8989 58.1607 59.6632 57.9892C59.6584 57.9577 59.6684 57.9448 59.7197 57.9161C59.8149 57.7991 59.8687 57.6979 59.9459 57.5527C60.0124 57.6439 60.0591 57.7161 60.1143 57.7809C60.1559 57.8298 60.2085 57.8695 60.2562 57.9132C60.2562 57.9132 60.2818 57.9375 60.2935 57.9508Z" fill="#FCE8E7"/>
<path d="M60.2647 57.8862C60.209 57.8697 60.1564 57.83 60.1148 57.7811C60.0595 57.7162 60.0129 57.6441 59.9463 57.5529C59.8691 57.6981 59.8153 57.7993 59.7372 57.8986C59.7129 57.674 59.7129 57.4514 59.7129 57.2317C59.858 57.1129 60.0119 57.1286 60.1522 57.201C60.2106 57.2312 60.2842 57.3646 60.268 57.3845C60.1332 57.5505 60.3171 57.7032 60.2647 57.8862ZM59.8983 57.4751C59.9979 57.5047 60.0853 57.4981 60.0989 57.3743C60.1018 57.3482 60.0468 57.2974 60.0111 57.289C59.8936 57.2613 59.8358 57.3099 59.8983 57.4751Z" fill="#629FDE"/>
<path d="M59.8805 57.4549C59.8355 57.3096 59.8932 57.261 60.0108 57.2887C60.0465 57.2971 60.1014 57.3479 60.0986 57.374C60.085 57.4978 59.9976 57.5044 59.8805 57.4549Z" fill="white"/>
</g>
<defs>
<clipPath id="clip0_850_425">
<rect width="72" height="91" fill="white"/>
</clipPath>
</defs>
</svg>
