<svg width="159" height="31" viewBox="0 0 159 31" fill="none" xmlns="http://www.w3.org/2000/svg">
<path d="M157.088 24.0273H0.871094V31.0002H157.128V24.0273H157.088Z" fill="white"/>
<path d="M0 17.0122L5.50702 15.9201C5.62588 18.9024 6.49749 20.3726 8.35958 20.3726C9.98395 20.3726 10.7367 19.5745 10.7367 17.2642V0H16.4814V15.794C16.4814 21.9688 14.0647 24.5312 8.24072 24.5312C2.21866 24.4892 0.435807 20.7507 0 17.0122Z" fill="white"/>
<path d="M20.0078 18.1462V6.59473H25.5941V18.2722C25.5941 19.9524 26.3468 20.6245 27.575 20.6245C29.1994 20.6245 30.1899 19.5744 30.1899 17.1381V6.59473H35.7761V24.069H30.4276V19.3224H30.2691C29.4371 23.3969 27.6543 24.447 25.1583 24.447C21.7114 24.447 20.0078 22.5148 20.0078 18.1462Z" fill="white"/>
<path d="M38.6289 20.3306L41.6399 18.1883C42.6304 20.1626 44.2152 20.9187 46.2753 20.9187C47.8205 20.9187 48.494 20.4566 48.494 19.5325C48.494 18.4824 47.8205 17.9363 45.998 17.5583L43.7001 17.0962C40.6099 16.5081 38.9062 14.5759 38.9062 11.8875C38.9062 8.27506 41.6399 6.2168 45.8395 6.2168C49.9995 6.2168 51.9408 8.02303 52.9709 10.0393L50.0391 12.0556C49.2864 10.2493 47.7809 9.66124 46.3942 9.66124C44.9283 9.66124 44.1755 10.2073 44.1755 11.1314C44.1755 12.0135 44.8094 12.5176 46.3942 12.8116L48.7317 13.2737C52.1786 13.9458 53.8822 15.416 53.8822 18.6924C53.8822 21.7588 52.0201 24.5312 46.5923 24.5312C42.5512 24.4471 39.8571 22.8089 38.6289 20.3306Z" fill="white"/>
<path d="M57.1698 19.3228V10.0816H54.9512V6.59519H57.1698V2.0166H62.7561V6.59519H65.4502V10.0816H62.7561V18.8188C62.7561 19.9529 63.1919 20.415 64.0239 20.415H65.4898V24.0694H61.8052C58.3188 24.0274 57.1698 22.8513 57.1698 19.3228Z" fill="white"/>
<path d="M67.2324 6.59473H73.2941L75.5524 17.6001H75.7109L78.603 6.59473H83.2384L86.0118 17.6001H86.1702L88.6662 6.59473H93.0639L87.9531 24.027H83.1592L80.2274 13.0636H80.0689L77.2956 24.027H72.5017L67.2324 6.59473Z" fill="white"/>
<path d="M93.5801 15.29C93.5801 9.70327 97.0269 6.13281 102.138 6.13281C107.288 6.13281 110.695 9.70327 110.695 15.29C110.695 20.8767 107.249 24.4472 102.138 24.4472C96.9873 24.4472 93.5801 20.8767 93.5801 15.29ZM104.832 15.29C104.832 10.7954 103.921 9.61926 102.138 9.61926C100.355 9.61926 99.4437 10.7954 99.4437 15.29C99.4437 19.7846 100.355 20.9607 102.138 20.9607C103.921 21.0027 104.832 19.7846 104.832 15.29Z" fill="white"/>
<path d="M113.191 6.59477H118.461V12.3915H118.619C119.412 7.6029 120.917 6.46875 123.373 6.46875H123.651V11.6774H120.957C119.332 11.6774 118.817 12.2235 118.817 14.2818V23.985H113.231V6.59477H113.191Z" fill="white"/>
<path d="M132.92 17.0542L131.336 18.9444V24.0271H125.789V0.0419922H131.336V14.0718L137.041 6.55283H142.033L136.605 12.8536L142.389 24.0271H136.447L132.92 17.0542Z" fill="white"/>
<path d="M142.746 20.3306L145.797 18.1883C146.787 20.1626 148.372 20.9187 150.432 20.9187C151.977 20.9187 152.651 20.4566 152.651 19.5325C152.651 18.4824 151.977 17.9363 150.155 17.5583L147.857 17.0962C144.767 16.5081 143.063 14.5759 143.063 11.8875C143.063 8.27506 145.797 6.2168 149.996 6.2168C154.156 6.2168 156.098 8.02303 157.128 10.0393L154.196 12.0556C153.443 10.2493 151.938 9.66124 150.551 9.66124C149.125 9.66124 148.332 10.2073 148.332 11.1314C148.332 12.0135 148.966 12.5176 150.551 12.8116L152.889 13.2737C156.335 13.9458 158.039 15.416 158.039 18.6924C158.039 21.7588 156.177 24.5312 150.749 24.5312C146.708 24.4471 143.974 22.8089 142.746 20.3306Z" fill="white"/>
</svg>
