<svg width="154" height="29" viewBox="0 0 154 29" fill="none" xmlns="http://www.w3.org/2000/svg">
<path fill-rule="evenodd" clip-rule="evenodd" d="M20.6902 23.5914V26.848H0.324219V4.45162H3.99069V23.5914H20.6902ZM17.8393 12.5961L21.9116 4.85819H18.0426L14.9876 12.5961H17.8393ZM51.1359 8.12793C49.8154 6.05002 47.8867 4.30326 45.6153 3.11307C43.344 1.92206 40.73 1.28762 38.1168 1.28762C35.5036 1.28762 32.8888 1.92206 30.6183 3.11307C28.3469 4.30326 26.4174 6.05002 25.0969 8.12793C23.7763 10.205 23.0632 12.6141 23.0632 15.0232C23.0632 17.4314 23.7763 19.8405 25.0969 21.9176C26.4174 23.9955 28.3461 25.7422 30.6183 26.9324C32.8896 28.1234 35.5036 28.7579 38.1168 28.7579C40.73 28.7579 43.344 28.1242 45.6153 26.9324C47.8867 25.7422 49.8154 23.9955 51.1359 21.9176C52.4573 19.8405 53.1696 17.4306 53.1696 15.0232C53.1696 12.6149 52.4573 10.2058 51.1359 8.12793ZM47.967 20.5077C46.9817 22.1372 45.5399 23.5119 43.8382 24.4504C42.1366 25.3881 40.1759 25.8881 38.2143 25.8881C36.2528 25.8881 34.2921 25.3881 32.5905 24.4504C30.8896 23.5119 29.4478 22.1381 28.4617 20.5077C27.4756 18.8773 26.9461 16.992 26.9461 15.1068C26.9461 13.2207 27.4756 11.3354 28.4617 9.70583C29.4478 8.07629 30.8888 6.70167 32.5905 5.76394C34.2921 4.8254 36.2536 4.32539 38.2143 4.32539C40.175 4.32539 42.1366 4.8254 43.8382 5.76394C45.5399 6.70167 46.9809 8.07547 47.967 9.70583C48.9533 11.3351 49.4775 13.2022 49.4834 15.1068C49.4772 17.0113 48.9531 18.8783 47.967 20.5077ZM78.7357 14.11C78.0726 15.5691 76.8184 16.4125 75.8373 16.9224C74.8561 17.433 74.1487 17.6101 73.4364 17.5847L80.5644 26.8488H76.4914L69.5978 17.8904H60.6058V26.8488H56.9401V4.45162H71.6027C73.0847 4.45162 74.5881 4.74343 75.9143 5.48935C77.2406 6.23527 78.3881 7.3689 78.9275 8.97303C79.466 10.5763 79.3972 12.651 78.7357 14.11ZM74.6348 13.9567C75.4069 13.3043 75.8643 12.2313 75.8241 11.1673C75.7848 10.1026 75.2479 9.04844 74.4815 8.40498C73.7143 7.76235 72.7339 7.70907 71.8068 7.70907H60.6058V14.6322H71.8068C72.797 14.6322 73.8626 14.61 74.6348 13.9567ZM99.9115 14.0215V17.0748H87.4883V23.5914H104.188V26.848H83.8218V4.45162H104.188V7.70907H87.4883V14.0215H99.9115ZM100.115 0.989258H94.6155L92.3761 3.84013L100.115 0.989258ZM111.368 21.147L108.464 26.848H104.799L116.203 4.4508H119.869L131.274 26.848H127.608L124.705 21.147H111.368ZM118.036 8.05088L112.818 18.297H123.253L118.036 8.05088ZM153.472 23.5914V26.848H133.107V4.45162H136.772V23.5914H153.472ZM151.885 8.94598L151.853 8.41154C151.848 8.31318 151.856 8.21481 151.816 8.10333C151.776 7.98858 151.714 7.88238 151.635 7.79022C151.578 7.72082 151.498 7.67541 151.409 7.66317C151.568 7.60802 151.701 7.49891 151.787 7.35496C151.883 7.20168 151.942 6.99921 151.94 6.782C151.937 6.56478 151.871 6.33199 151.755 6.15986C151.505 5.79345 151.065 5.73116 150.68 5.74919H149.058V9.49107H149.687V7.95415H150.628C150.731 7.95415 150.902 7.94022 151.073 8.07383C151.3 8.34187 151.199 8.69434 151.24 8.99352C151.243 9.17221 151.26 9.34107 151.334 9.49107H152.041V9.37549C151.913 9.32221 151.901 9.13533 151.885 8.94598ZM151.107 7.29758C150.912 7.42218 150.71 7.423 150.571 7.42054H149.682V6.28117C150.07 6.28608 150.46 6.26478 150.845 6.29592C150.933 6.30548 151.018 6.33764 151.09 6.38931C151.163 6.44097 151.221 6.51043 151.259 6.59101C151.34 6.83856 151.344 7.10414 151.107 7.29758Z" fill="white"/>
<path fill-rule="evenodd" clip-rule="evenodd" d="M153.253 6.02989C152.978 5.55283 152.574 5.14955 152.097 4.87413C151.62 4.59871 151.069 4.45117 150.518 4.45117C149.968 4.45117 149.417 4.59871 148.94 4.87413C148.463 5.14955 148.059 5.55283 147.784 6.02989C147.509 6.50695 147.359 7.05778 147.359 7.60861C147.359 8.15944 147.509 8.71028 147.784 9.18652C148.059 9.66276 148.463 10.0669 148.94 10.3423C149.417 10.6177 149.968 10.7652 150.518 10.7652C151.069 10.7652 151.62 10.6177 152.097 10.3423C152.574 10.0669 152.978 9.66358 153.253 9.18652C153.528 8.70946 153.678 8.15944 153.678 7.60861C153.678 7.05778 153.528 6.50695 153.253 6.02989ZM152.875 8.98159C152.638 9.38819 152.299 9.72606 151.892 9.96194C151.484 10.1964 151.021 10.3202 150.55 10.321C150.08 10.3206 149.617 10.1968 149.209 9.96174C148.801 9.72671 148.462 9.38873 148.226 8.98159C147.991 8.57432 147.867 8.1124 147.867 7.64222C147.867 7.17204 147.991 6.71012 148.226 6.30285C148.582 5.68681 149.169 5.23748 149.856 5.05365C150.544 4.86982 151.276 4.96652 151.892 5.3225C152.297 5.55611 152.64 5.89792 152.875 6.30285C153.109 6.71038 153.233 7.1721 153.234 7.64222C153.234 8.10944 153.109 8.57667 152.875 8.98159Z" fill="white"/>
</svg>
