<svg width="72" height="84" viewBox="0 0 72 84" fill="none" xmlns="http://www.w3.org/2000/svg">
<path d="M35.9707 0C49.9265 0 61.7202 2.61293 71.9414 8.03223V49.0645C71.9414 57.8709 68.5998 65.3221 62.1133 70.4512C56.6095 74.9996 39.6071 82.4516 35.9707 84C32.3344 82.4516 15.3322 75.0005 9.82812 70.5488C3.43985 65.4198 0 57.9676 0 49.1611V8.03223C10.2212 2.61293 22.0149 1.12875e-07 35.9707 0ZM36.0693 1.16113C22.6048 1.16113 10.9089 3.77438 1.27734 8.80664V49.0645C1.27734 57.5806 4.52083 64.6456 10.6143 69.5811C16.2166 74.1295 34.0055 81.7745 36.0693 82.7422C38.1342 81.8708 55.9212 74.226 61.5234 69.6777C67.6169 64.7422 70.8604 57.6773 70.8604 49.1611V8.80664C61.2289 3.67767 49.5337 1.16118 36.0693 1.16113ZM54.251 9C58.2929 9 62.1844 9.2222 65.9912 9.53711L67.5186 9.67773V49.0645C67.5186 56.7096 64.7668 62.8063 59.3613 67.1611C54.5455 71.1288 40.0003 77.5158 35.9707 79.2578C31.8428 77.4191 17.2976 70.9353 12.5801 67.1611C7.27289 62.8063 4.42285 56.6128 4.42285 49.0645V26.0322C19.3615 12.5808 37.445 9 54.251 9ZM36.8555 27.3867C33.5139 27.3867 30.8604 28.1618 28.6982 29.5166V68.3223H34.791L34.6934 55.7422C35.283 55.839 36.1679 56.0322 37.4453 56.0322C44.2265 56.032 48.0596 50.1285 48.0596 41.4189C48.0594 32.8064 44.128 27.3868 36.8555 27.3867ZM7.56738 27.9678V46.7422C7.56746 53.0322 10.5159 56.2255 16.5107 56.2256C20.2454 56.2256 23.2926 55.355 25.6514 53.8066V27.9678H19.6562V50.3223C18.9683 50.8061 17.985 51.0967 16.8057 51.0967C14.054 51.0966 13.6611 48.5807 13.6611 46.9355V27.9678H7.56738ZM57.5928 27.3867C53.5633 27.4835 49.4356 30.2903 49.4355 35.1289C49.5338 38.3225 50.4183 40.6456 55.4307 43.5488C58.084 45.0971 59.165 46.1614 59.165 48C59.165 50.0323 57.7888 51.29 55.5283 51.29C53.5629 51.2899 51.3029 50.2257 49.7305 48.8711V54.3867C51.696 55.4512 54.0544 56.2256 56.4131 56.2256C62.4082 56.2256 65.0619 52.0642 65.1602 48.29C65.2584 44.8063 64.2758 42.1932 59.2637 39.29C57.1015 37.9352 55.2338 37.0645 55.332 34.9355C55.332 32.9033 57.1994 32.1289 58.8701 32.1289C60.934 32.1289 62.9977 33.2908 64.2754 34.5488V29.3223C63.1942 28.5481 60.9339 27.29 57.5928 27.3867ZM36.8555 32.2256C40.3934 32.2257 41.8672 34.936 41.8672 41.6133C41.8671 48.0969 40.1966 51.29 36.7568 51.29C35.9706 51.29 35.1841 51.0969 34.791 50.9033L34.6934 32.6133C35.1848 32.4198 36.0693 32.2256 36.8555 32.2256Z" fill="white"/>
</svg>
