<svg width="150" height="147" viewBox="0 0 150 147" fill="none" xmlns="http://www.w3.org/2000/svg">
<path d="M75.0012 0.279297C65.188 0.279297 55.471 2.21214 46.4048 5.96746C37.3387 9.72278 29.101 15.227 22.1621 22.166C8.14826 36.1798 0.275391 55.1866 0.275391 75.0051C0.275391 108.034 21.7217 136.056 51.3878 145.995C55.1241 146.592 56.3197 144.276 56.3197 142.258V129.63C35.6207 134.113 31.2119 119.616 31.2119 119.616C27.7745 110.948 22.9173 108.632 22.9173 108.632C16.1173 103.999 23.4404 104.148 23.4404 104.148C30.913 104.671 34.8734 111.845 34.8734 111.845C41.3746 123.203 52.3593 119.841 56.6186 118.047C57.2912 113.19 59.234 109.902 61.3264 108.034C44.7372 106.166 27.3261 99.7393 27.3261 71.2688C27.3261 62.9742 30.1657 56.3236 35.0229 51.0181C34.2756 49.15 31.6602 41.3785 35.7701 31.2905C35.7701 31.2905 42.0471 29.2729 56.3197 38.9125C62.2231 37.2686 68.6495 36.4466 75.0012 36.4466C81.3529 36.4466 87.7793 37.2686 93.6826 38.9125C107.955 29.2729 114.232 31.2905 114.232 31.2905C118.342 41.3785 115.727 49.15 114.979 51.0181C119.837 56.3236 122.676 62.9742 122.676 71.2688C122.676 99.814 105.19 106.091 88.5265 107.959C91.2167 110.276 93.6826 114.834 93.6826 121.783V142.258C93.6826 144.276 94.8782 146.667 98.6892 145.995C128.355 135.981 149.727 108.034 149.727 75.0051C149.727 65.1919 147.794 55.4749 144.039 46.4088C140.283 37.3426 134.779 29.1049 127.84 22.166C120.901 15.227 112.664 9.72278 103.597 5.96746C94.5313 2.21214 84.8143 0.279297 75.0012 0.279297Z" fill="#ABA4A7"/>
</svg>
