<svg width="1440" height="890" viewBox="0 0 1440 890" fill="none" xmlns="http://www.w3.org/2000/svg">
<path d="M760.013 88C760.013 89.7295 760.667 98.1174 781.013 138C798.412 172.108 839.018 229.196 869.013 269C899.007 308.804 919.5 328.147 941.012 344C962.525 359.853 983.891 372.034 1008.01 380C1032.13 387.966 1058.26 391.083 1082.01 392C1126.51 393.718 1158.69 383.888 1177.01 373C1192.17 363.997 1198.08 348.076 1202.01 335C1203.83 328.965 1202.61 324.402 1200.01 320C1194.39 310.47 1148.22 294.693 1081.01 272C1037.07 257.163 1002.59 255.013 969.012 255C937.844 254.988 911.516 267.073 891.013 281C871.365 294.346 864.945 320.739 861.013 346C856.855 372.702 862.186 400.416 870.013 427C877.72 453.181 903.909 471.574 940.012 489C992.831 514.493 1041.63 515.04 1063.01 512C1079.18 509.702 1088.07 498.416 1092.01 491C1093.48 488.237 1090.79 485.323 1073.01 484C1055.24 482.677 1021.65 482.583 884.013 499C746.376 515.417 505.397 548.924 378.012 565C250.628 581.076 244.296 578.228 239.012 573C227.514 561.623 223.593 536.987 224.012 500C224.256 478.541 229.471 450.807 236.012 421C242.554 391.193 251.67 359.668 273.012 322C294.355 284.332 326.962 242.152 356.012 216C385.063 189.848 409.554 180.428 435.013 179C460.471 177.572 486.769 184.343 517.013 200C547.256 215.657 581.325 240.328 616.013 274C650.7 307.672 685.205 349.27 716.013 394C746.82 438.73 771.989 485.759 794.013 531C816.036 576.241 833.772 618.877 847.013 658C860.253 697.123 868.825 731.319 875.013 766C881.2 800.681 884.527 835.088 885.013 865C885.905 920.022 874.906 959.416 864.013 986C845.375 1031.48 835.295 1052.98 837.013 1063C839.138 1075.41 872.8 1080.33 922.012 1086C949.501 1089.17 983.338 1089.01 1018.01 1086C1052.69 1082.99 1087.57 1075.53 1124.01 1059C1160.46 1042.47 1196.58 1016.96 1230.01 985C1263.44 953.044 1293.07 915.747 1316.01 878C1338.95 840.253 1354.39 802.856 1365.01 769C1375.63 735.144 1381.37 705.82 1381.01 679C1380.66 652.18 1374.25 628.837 1359.01 606C1343.78 583.163 1319.73 561.296 1267.01 532C1214.3 502.704 1133.34 466.33 1075.01 442C1016.69 417.67 982.998 406.818 947.012 398C911.027 389.182 874.523 382.659 742.013 383C609.502 383.341 382.578 390.733 258.012 393C133.447 395.267 117.199 391.931 107.012 388C96.8265 384.069 93.2411 378.861 91.0125 371C86.001 353.322 95.3053 325.541 114.012 292C124.133 273.855 142.835 258.26 166.012 242C189.19 225.74 218.064 210.329 257.012 198C295.961 185.671 343.478 176.523 416.013 182C488.547 187.477 585.098 208.635 651.013 231C716.927 253.365 749.664 276.569 780.013 302C810.361 327.431 837.025 354.519 869.013 396C901 437.481 936.938 492.302 963.012 526C989.087 559.698 1004.49 570.763 1022.01 580C1039.54 589.237 1059.22 596.694 1082.01 602C1104.81 607.306 1130.11 609.393 1156.01 609C1181.92 608.607 1208.1 605.564 1234.01 596C1259.93 586.436 1284.27 570.557 1308.01 550C1331.75 529.443 1353.38 504.593 1371.01 480C1388.64 455.407 1401.87 431.54 1412.01 410C1430.77 370.187 1438.26 336.719 1440.01 311C1441.48 289.587 1429.05 270.317 1406.01 249C1390.97 235.079 1365.62 220.788 1341.01 208C1316.41 195.212 1292.62 186.049 1265.01 179C1237.4 171.951 1206.5 167.105 1174.01 164C1141.53 160.895 1108.66 159.284 1077.01 161C1045.37 162.716 1015.74 167.017 985.012 174C954.284 180.983 922.553 190.808 823.013 229C723.472 267.192 556.83 333.808 447.013 372C337.195 410.192 290.051 418.694 240.012 424C189.974 429.306 138.075 431.258 91.0125 430C43.9496 428.742 3.27896 423.936 -34.9875 375C-73.254 326.064 -107.476 233.419 -107.988 165C-108.499 96.5811 -93.4688 40.4888 -34.9875 7C23.4937 -26.4888 107.253 -54.1559 233.012 -61C360.851 -67.9573 552.301 -14.1542 705.013 33C857.724 80.1542 986.38 156.887 1061.01 192C1135.64 227.113 1152.19 232.462 1168.01 236C1224 248.517 1264.74 239.251 1288.01 224C1298.03 217.436 1298.57 202.198 1299.01 190C1299.95 164.439 1274.33 141.062 1242.01 97C1229.35 79.7371 1212.31 68.9009 1194.01 58C1150.92 32.3315 1105.49 38.1353 1095.01 39C1090.53 39.3704 1087.78 41.3796 1086.01 44C1084.24 46.6204 1083.59 50.0563 1084.01 54C1084.92 62.4942 1094.08 71.5842 1108.01 79C1123.95 87.4797 1145.52 84.472 1166.01 81C1186.53 77.5227 1203.19 63.6569 1218.01 48C1235.96 29.0476 1236.98 2.96678 1240.01 -11C1245.08 -34.381 1288.25 -21.3002 1311.01 -30C1324.07 -41.2678 1335.47 -50.7723 1342.01 -56C1345.09 -58.6335 1347.09 -61.3272 1355.01 -64" stroke="#6A686C" stroke-width="2" stroke-linecap="round"/>
</svg>
