<svg xmlns="http://www.w3.org/2000/svg" viewBox="0 0 32 31"><g fill="#22201c"><path d="m.8 31.2.6-2.8.2-.8.2-.6L3 24.3a7 7 0 0 1 1.8-1.8l.7-.4.5-.3 3.4-1.6c.6-.4.6-.3.8-.8l1.1-1.4.4-.4-.1-.3-.4-1.3q0-.6-.3-.5-.8.2-1.4-1c-.6-1.3-.5-2.7.2-3.3l.4-.2h.2l-.1-.5V9q0-2 .8-2.8.5-.6 1.2-.7.3 0 .4-.3.4-.7 1.5-1a10 10 0 0 1 4.8 0q1.5.4 2.6 1.5c1.1 1.2 1.4 2.6 1 5q-.3 1.2 0 1 .3 0 .4.3.2.1.1 1 0 1.5-.8 2.3-.2.2-.3.8a5 5 0 0 1-.8 2l-1 1.1-.1.3.6 1 .6.3 3.3 1.7c1.2 1 2 2 2.7 3.9l.2.5a21 21 0 0 1 1.2 4l.1.5h-.1c-.1 0-.2-.1-.5-1.2Q27 25.9 25.7 24a6 6 0 0 0-1.8-1.5l-2.7-1.4.3.7c.5.8 1.2 2.2 1.3 2.7v.6q-.3.4-1.3-.2-1-.5-.8-.3l-.2-.1q0-.2.3-.2l.8.2q.8.4.9.3c.1 0-1-2.3-1.9-3.8q-.8-1.4-.9-1.1-.3.2 0 1.3c.5 1.3.5 1.8.4 4.3q-.2 1.4.4 2l.2.2.3-.1.2-.1-.3-1.3c-.3-1.3-.3-1.4-.2-1.4q.2.1.6 1.8c.2.8.2.8.4.9l.3.2q.3.8-.2 1.1-.2 0-.3.3l-.4.4-.2.3v.8l.1.8h-.3l-.1-.7c-.2-2-.2-2.1-.4-2.1l-.5-.3v-.9q.3 0 0-.5v-4.1q.1-1-.4-.5t-1.3.8c-.5.2-1.8.3-2.5.2l-2.2-.8-.6-.3.7 1.3a7 7 0 0 1 1.5 3.3l.2 3.6v1h-.4v-1.1q0-3-.5-4.5a6 6 0 0 0-1-2 10 10 0 0 1-1.9-4.4V19q.3-.1.3-.7 0-.3-.2-.1-.8.8-1.3 2.5a10 10 0 0 0 0 4c.2.3.3.3 1.5-.2l1.1-.2h.6q.2.2 0 .3-.2.3-.3 0t-1.3.3q-1.4.5-1.7.3t-.5-1.3a13 13 0 0 1 .2-3.6l-4.3 2.1a6 6 0 0 0-2.8 3 18 18 0 0 0-1.6 5l-.2 1zM21.1 29l-.2-.1q-.1-.1 0 .2v.3l.2-.1.2-.3zm-3.2-6c.6-.3 1.6-1 1.3-1v-1.6a5 5 0 0 1-4.6.2 6 6 0 0 1-2-1.7l-.5-.5v.3l-.1 1.1c0 .7 0 .8.2 1.3q0 .5.6.7 1.3.9 2.7 1.2zm.4-2.7q.8-.1 1.7-1.2.8-.8 1.3-1.7c.2-.4.4-1.3.4-1.9l.1-1c.2-.8 0-3.7-.1-5.2q-.2-1.5-1-2.1c-.4-.4-.6-.4-2-.7a10 10 0 0 0-4.5-.3l-.8.1-.4.4q-.7.6-1 2a28 28 0 0 0-.3 7.9 6 6 0 0 0 4.2 3.9zm-7.3-5v-1.5l.1-1.4-.2-.4q-.3-.7-.6-.7c-.6 0-1 1.4-.7 2.4q.3 1.2 1 1.6zm11.6-.8c.4-1 .4-2.4 0-2.5q-.2-.1-.3.4v.3h.2q.2-.1.2 0l-.2.3q-.2.1-.2.7V15zm-11.3-3.8.2-1.4q.3-1.6.8-2.6l.4-.4.4-.3q.2-.2 1.4-.4c.7 0 2.8 0 3.5.2l2.5.5q1.3 0 1.3.3h-.2l-.4.1q-.3 0 0 .3.5.4.8 1.3l.2 1.6V11c.3-.3.4-2.5.2-3.2-.4-1.2-.4-1.3-1.2-2q-.4-.5-.8-.6l-1-.5-2-.6c-.6 0-2.1.1-3.1.3q-1.3.4-1.2 1.1v.3h-.3q-1.7.2-2.2 2v2.9l.3.5.3.2z"/><path d="M16.6 18.8h-.2q-.5-.2-.5-.5t.3-.2h1q.8 0 .7.2 0 .2-.3.4c-.2.1-.9.2-1 .1m-.3-1.2a3 3 0 0 1-1.9-1.4l-.2-.3-.1.1q-.2.4-.2 0c0-.4.5-.9.7-.6 0 .1.9.5 1.4.6 1 .3 2.7.2 3.2 0q.6-.3.7.6 0 .4-.3 0l-.1-.3-.1.2-1.1 1q-.4.2-1 .2zm1.5-.4q.3 0 .6-.4l.3-.3h-1.2a5 5 0 0 1-2.4-.4l-.3-.2.1.3q.4.6 1.4 1 .8.2 1.5 0"/><path d="M13.2 15.6q.1-.7 1.1-.9l1.5.1h.2q0-.5.2-.5v.1q0 .3.7.5.9.2 1.4-.3.2-.2.2-.5t-.4-.7-.4-1q-.1-.9.1-1l.1.3q0 .8.5 1.4t.5 1.1-.2.6l-.1.2h.5l1 .4q.1.3-.7 0h-1.9q-.5 0-.8-.2h-1.4q-1.3-.3-1.6.2l-.3.4h-.1v-.2m6.9-3q-.4-.4-1.3-.1-.3 0-.3-.2 0-.4.5-.6t1 0q.6.3.7 1 0 .2-.6-.2m-6.4-.3.4-.6q.4-.3 1-.3.9 0 1 .7 0 .1-.8 0-.8 0-1.2.2-.3.1-.4 0m6.9-1.7a3 3 0 0 0-1.5-.5q-.8 0-.7-.3-.1-.6.8-.5c1 0 2 .6 2 1.3v.3zm-7.4 0q0-.6.9-1.1a4 4 0 0 1 2-.3q.6.3.3.7.2.2-1 .2c-.8 0-.8 0-1.3.2q-1 .4-1 .2m-3 3.3q-.2-.6 0-.8l.2-.2-.1-.2q-.2-.3-.4-.2l-.2-.1.3-.3q.3 0 .8.7.1.4-.2.4t0 .6l-.1.5zM6.8 30.2q0-3.5-1.3-5.3c-.3-.6-.9-1.1-1-1.2q-.4-.1 0-.2.3-.1.8.4c1.2 1.1 2 3.7 2 6.5v1h-.4zm6.6 1q-.1-.3.2-.6.1-.2.4-.2.6 0 .6.7 0 .4-.2.3-.2 0 0-.2 0-.3-.2-.4H14q-.3 0-.2.4l-.1.2zM26 31c0-.7-.1-2.7-.3-3.7l-.1-1.5.2.2q.4 1.3.6 4c0 1.5 0 1.4-.2 1.4H26z"/></g><path fill="#513729" d="M13.4 28.6c-.1-3.1-.1-3.2 0-3.2l.2.8v3.2l-.1.1zm2.4-8a6 6 0 0 1-4.2-4c-.2-.8-.3-3-.1-3.1l.1.5q.2 1.6 1.2 2.2l.2.1V16q.3-.3.3-.1l.1-.2q.4-.8 1.9-.6h.9l.5.2h.8l2 .2h.5q.2 0 .5.5v.5l.1.2c.2 0 .8-.7 1-1q.3-.9.2.2a6 6 0 0 1-1.6 3.2q-1 1.1-1.8 1.3c-.7.2-1.9.2-2.6.1zm2.3-1.5q.9-.4 1.3-1.3l.3-.7v-.3q.2 0 0-.5t-.5-.2c-.4.3-2.3.3-3.2 0l-1.5-.6-.3.2q-.3.2-.3.4v.6q0 .4.3.9a3 3 0 0 0 3 1.7q.6 0 1-.2zM11 11.3l-.4-.6V7.8q.6-2 2.2-2 .4 0 .3-.2v-.2c-.1 0 .2-.6.5-.8q.4-.2 2.2-.5a6 6 0 0 1 3.8.5l1 .5.8.6c.7.8.8.9 1.2 2 .2.7 0 2.9-.2 3.5q0 .3-.1 0L22 10c0-1.2 0-1.2-.2-1.6A3 3 0 0 0 21 7l-.3-.3h.5q.6-.1.2-.2H21l-.6-.2-2.6-.4-3.4-.2q-1.2.1-1.3.4l-.4.3q-.6.3-1 1.8l-.2.9-.3 2.6z"/><g fill="#a57441"><path d="M1 31.2c0-.7.5-2.5.7-3.3l1-2.7c1-1.8 1.9-2.5 5.8-4.3 1.3-.7 1.5-.8 1.5-.6-.3 1-.4 2.6-.3 3.6q.1 1 .5 1.3.2.2 1.6-.3t1.4-.2h.2q.2-.3-.6-.3-.4 0-1 .3l-1 .3q-.5.1-.6-.2a8 8 0 0 1-.2-2.6q0-2.4 1-3.6l.8-.6-.2 1.3v-.1l-.1-.1v.6q.4 2 1.8 4l1.1 2q.6 1.6.5 4.6v1.1h-.4v-.2l-.1-.5q-.8-.5-1 .5v.2H7.3v-1c0-2.8-.8-5.3-2-6.4q-.4-.4-.7-.4.9.6 1.6 2.2T7 30v1.3H1zM13.6 28l-.2-2.6v3q.1 1.8.2-.4m7.4 2.5v-.8l.2-.3.3-.4.3-.3q.3 0 .4-.6 0-.4-.5-.6-.2.1-.4-.8l-.5-1.9.3 1.3.3 1.3-.3.2-.3.2-.3-.3-.3-.8-.1-1.3v-2.9l-.3-1.4q-.4-.7-.2-1l.2-.4.3.1c.6.8 2.6 4.5 2.6 5l-.9-.2-.9-.3-.3.1q0 .2 0 0h.2l.8.3q1 .6 1.2.3v-.5c0-.4-.8-2-1.3-2.8l-.4-.8 3 1.5q1 .7 1.7 1.5a16 16 0 0 1 2 4.2l.8 3.1-1.2.1h-1v-.2l-.5-4.5q-.4-1.1-.3-.6l.2 1.2.3 3.7v.4h-5z"/><path d="M20.8 29v-.3l.4.1q.3 0-.1.5l-.3.3zm-5-4.5L14 24q-.6-.4-.6-.7l.4.2a7 7 0 0 0 3.3.8q1.8-.2 2.6-1.3.1-.2.2 0l-.3.6q-.5.6-1.5.9-1.2.2-2.3 0m2-12.2.1-.8v.8"/></g><g fill="#e8a174"><path d="M15.4 23a9 9 0 0 1-2.7-1.2q-.5-.2-.6-.7l-.2-.8c0-.3 0-2 .2-2.1l.4.4q1.7 2.1 3.7 2.4 1.5.1 2.8-.7l.4-.2v.3l-.1 1v.2l.1-.3q0-.3.2.2l-.2.5-1.4.9a8 8 0 0 1-2.6 0m.9-3.7q-2-.6-2.4-2.1 0-.7.2-1.2l.1-.2.2.4a3 3 0 0 0 2.9 1.5 3 3 0 0 0 2-1.1l.2-.3.1.3c.4.7-.3 2-1.4 2.6q-.9.4-2 .1m1.2-.6q.3 0 .3-.3h-1.5l-.3-.1q-.1.1.2.4.6.3 1.3 0"/><path d="M20.5 16.7v-.3q0-.7-.8-1.1L19 15h-.6l.1-.1a1 1 0 0 0 .4-.8q0-.5-.5-1L18 12q0-.7-.2-.5v1.1l.5.7q.3.3.3.7.1 1.2-1.7 1-.6-.2-.6-.6H16q-.2.2 0 .4c.1.1.1.1-.8 0l-1.5.1q-.4.2-.6 1l-.2.3q-.6-.1-1-1-.6-1.3-.4-3.4l.3-2.9c.3-1.4.4-1.8 1-2.3l.4-.4.8-.1a10 10 0 0 1 4.6.2c1.5.3 1.6.4 2 .7.8.7 1 1.4 1.2 4.1.2 3.3 0 4.3-.7 5.2q-.5.5-.7.4m.1-4-.4-.7q-.7-.6-1.4 0-.4.4 0 .4h.5l.8.1q.5.3.5.1zm-6.5-.5q.2-.2.8-.2l.7.1q.5.2.3-.2c-.3-.6-1.2-.6-1.7-.1l-.4.5zm7.1-1.4-.4-.8a2 2 0 0 0-1.3-.6q-1-.2-1 .4-.2.3.7.3 1 0 1.4.5.7.4.6.2m-7.2-.6c.5-.2.6-.2 1.4-.2 1 0 .9 0 1-.2l-.2-.4h-1.7q-.9.3-1.2.8v.3zm-3.4 5.1q-.7-.3-1.1-1.6a4 4 0 0 1 0-1.8q.7-1.4 1.5 0l.1.4v3.1zm-.1-1.5q-.3-.7 0-.7l.3-.1-.1-.2-.6-.7q-.3.3 0 .2.1-.2.5.3l.1.2-.2.2c-.2.3-.2.3 0 .8q.3.6.1 0zM22 15l.1-1v-1l.3-.2q.3-.3-.1-.1l-.2.1v-.4l.1-.5q.3-.2.6.1v1a3 3 0 0 1-.5 1.8q-.4.5-.3.2"/></g><g fill="#f5e7c8"><path d="M13.6 31.3q0-.6.4-.7.5.1.4.7c0 .2-.7.2-.8 0m1.6-.9c0-3.2-.3-4.8-1.3-6.2l-.2-.4.5.2a6 6 0 0 0 2.5.5q2 0 2.9-1l.3-.3V27q.3.5 0 .5v.8q.1.2.5.3l.2.6v.6l.1.6v.7l.1.3h-5.6z"/><path d="m15.8 24.3-2.1-.8-.6-.5-.5-1 .4.3a7 7 0 0 0 4 1 3 3 0 0 0 2.4-1l.3-.3.1.4v.7q-.6.8-1.9 1.1c-.5.2-1.5.2-2.1 0zm.4-7q-1-.4-1.3-1-.5-.7.4-.3 1 .6 2.5.4h1q-.2.5-.7.8a3 3 0 0 1-1.9 0"/></g></svg>